<svg xmlns="http://www.w3.org/2000/svg" xmlns:xlink="http://www.w3.org/1999/xlink" viewBox="0 0 29.3 32.2"><defs><style>.cls-1{fill:none;}.cls-2{fill:#97c767;}.cls-3{fill:#88b858;}.cls-4{fill:#b7835a;}.cls-5{fill:#72b147;}.cls-6{clip-path:url(#clip-path);}.cls-7{fill:#946a49;}.cls-8{fill:#64a43a;}.cls-9{fill:#5a9a30;}.cls-10{fill:#5a5952;}.cls-11{fill:#765338;}.cls-12{fill:#496e2e;}.cls-13{fill:#5b422d;}.cls-14{fill:#3b6121;}.cls-15{fill:#4f3624;}.cls-16{fill:#362518;}</style><clipPath id="clip-path" transform="translate(0 -0.01)"><rect class="cls-1" width="29.31" height="32.23"/></clipPath></defs><g id="Capa_2" data-name="Capa 2"><g id="Capa_1-2" data-name="Capa 1"><path class="cls-2" d="M13.64,31.8l-2.45-1.12L6.37,28.47l-.85-.38-1.64-.75L1.39,26.2,0,25.57V4.83l.13,0C.3,4.73,8.38,2.08,12,.89L14.65,0l4.66,1.54L26.64,4l2.66.88V25.55l-1.88.86c-1,.47-4.34,2-7.33,3.33s-5.47,2.47-5.5,2.47-.45-.19-.93-.41Z" transform="translate(0 -0.01)"/><path class="cls-3" d="M12.58,31.31,8.82,29.59,6.43,28.48c-.32-.15-.73-.34-.91-.41l-2.06-.93L.91,26l-.86-.4S0,24,0,18.09C0,14,0,9.35,0,7.75l0-2.92,3-1L7.77,2.29,12.08.88,14.63,0l.81.27.81.26-.36.11a2.69,2.69,0,0,0-.35.14,1.58,1.58,0,0,0,.37.15l.38.12L16.66,1,17,.82l1.72.56c.95.32,1.72.59,1.71.6a1.47,1.47,0,0,1-.34.15l-.32.11.41.14.42.13.27-.1a2.66,2.66,0,0,1,.43-.13,21.14,21.14,0,0,1,2.5.77l2.36.78-.21.1-.49.21L25,4.38c-.17.07-.24.12-.2.13a7.37,7.37,0,0,0,.85.27,1.2,1.2,0,0,0,.32-.12l.42-.16.5-.2.33-.14,1,.33c.54.18,1,.33,1.06.33s.07.51.06,10.36V25.54l-4.19,1.9L20.5,29.53c-1.53.71-5.9,2.68-5.93,2.68l-2-.9ZM11,13.06v-.61l-.15-.07c-.17-.09-1.12-.54-1.4-.66l-.22-.1v.63l0,.63.85.4.88.4a5.09,5.09,0,0,0,0-.62ZM9.15,10.93v-.61L9,10.24,8.53,10l-.27-.12v1.24l.39.19.44.18s.06-.14.06-.6Zm4-.61a3.52,3.52,0,0,0,.49-.24,2.8,2.8,0,0,1,.46-.22l.46-.21a4.54,4.54,0,0,0-.75-.36l-.17-.07-.48.21-.52.2a9.8,9.8,0,0,1-1-.44s.18-.12.44-.23a2.08,2.08,0,0,0,.46-.22,5.92,5.92,0,0,0-.91-.4l-.52.2-.49.2.24.1c.61.27.71.32.69.35l-.5.22-.48.21c.05.05,2,.9,2,.9a3.32,3.32,0,0,0,.54-.2Zm-10.36-1V8.66l-.27-.12L2,8.34l-.17-.08V9.53l.42.19.44.2a3.08,3.08,0,0,0,0-.63ZM18.26,9c.23-.1.44-.21.48-.23a3.22,3.22,0,0,1,.45-.23,1.24,1.24,0,0,0,.37-.2,3.55,3.55,0,0,0-.47-.2c-.39-.16-.44-.17-.56-.13-.27.09-1.78.75-1.78.77a6.29,6.29,0,0,0,1,.41A2.26,2.26,0,0,0,18.26,9Zm3.8-.87a1.38,1.38,0,0,0,.39-.22A2.1,2.1,0,0,0,22,7.66l-.46-.17-.43.19a2.63,2.63,0,0,0-.43.21,6.14,6.14,0,0,0,.94.37,3.5,3.5,0,0,0,.44-.17ZM11.34,7.62a.8.8,0,0,0,.27-.14,3.45,3.45,0,0,0-.42-.2,2.69,2.69,0,0,1-.43-.21s0,0,.1-.06.84-.33,1.28-.5c.26-.1.46-.19.45-.22A2.63,2.63,0,0,0,11.74,6c-.09,0-1.12.42-1.63.63a.9.9,0,0,1-.24.08,7.44,7.44,0,0,0-1,.4,3.61,3.61,0,0,0,.48.23l.92.39.44.19.2-.08.48-.19Zm8.73-.35.38-.18A1.47,1.47,0,0,0,20,6.87l-.5-.19-.46.2c-.34.14-.45.21-.39.23l.5.2a1.34,1.34,0,0,0,.52.14l.42-.18Zm3.81,0c.22-.1.39-.2.37-.22l-.48-.19-.46-.16-.42.18a2.3,2.3,0,0,0-.41.21s.91.36,1,.37l.44-.19Zm-8.77-.38a2.21,2.21,0,0,0,.43-.2,3.51,3.51,0,0,0-.45-.2c-.25-.09-.43-.19-.41-.21l.43-.19c.31-.12.39-.17.33-.19s-.39-.15-.77-.31c-1-.41-.94-.4-1.43-.21a2,2,0,0,0-.41.18l.87.36a8.08,8.08,0,0,1,.89.37,1.35,1.35,0,0,1-.43.2l-.44.2a5.11,5.11,0,0,0,.9.36,3.4,3.4,0,0,0,.49-.16Zm6.7-.37a3.74,3.74,0,0,0,.45-.22l.41-.2c.2-.08.34-.16.33-.18l-.45-.17-.42-.15-.38.16a2.91,2.91,0,0,1-.43.16,4,4,0,0,0-.9.41,8.72,8.72,0,0,0,.94.36,4,4,0,0,0,.45-.17ZM6.63,5.73a2.63,2.63,0,0,0,.43-.18,1.91,1.91,0,0,0-.38-.18l-.36-.16-.45.16a2.46,2.46,0,0,0-.47.18,3.71,3.71,0,0,0,.75.35l.48-.17Zm11.29,0a1.19,1.19,0,0,0,.38-.19,3.11,3.11,0,0,0-.46-.19l-.43-.16-.4.15-.43.19a3.74,3.74,0,0,0,.86.37,2.81,2.81,0,0,0,.48-.17Zm7.42,0,.33-.14c.13,0,0-.09-.42-.24l-.44-.15-.35.15a1.18,1.18,0,0,0-.34.18l.13.07.41.14a2,2,0,0,0,.36.11,1.2,1.2,0,0,0,.32-.12ZM4.42,5.2l1-.36A1.84,1.84,0,0,0,5,4.66l-.4-.17-.52.19L3.1,5c-.26.09-.46.18-.44.2a6.58,6.58,0,0,0,.72.32s.49-.16,1-.35Zm4.74-.38L10,4.5a2.06,2.06,0,0,0-.4-.18l-.39-.15-.35.12c-.72.25-1.39.49-1.45.53s0,0,0,.07l.38.17a1.25,1.25,0,0,0,.34.1ZM16.07,5c.57-.24,1-.4,1.1-.43s.08-.09-.06-.13l-.4-.14L16,4a2.62,2.62,0,0,1-.43-.19,8.15,8.15,0,0,1,.83-.34l.81-.31L16.79,3l-.41-.15-.75.27-.86.31c-.09,0-.06.06.28.18s.5.2.4.24L15,4l-.36.14.43.16a1.53,1.53,0,0,1,.4.18l-.43.18a1.39,1.39,0,0,0-.37.17,7.71,7.71,0,0,0,.84.33l.52-.2ZM11.46,4l.87-.31a1.6,1.6,0,0,0,.47-.2A5.59,5.59,0,0,0,12,3.2a4.57,4.57,0,0,0-.51.17l-.77.27c-.52.18-.52.18-.09.34l.4.15L11.46,4Zm9.77-.33c.21-.08.37-.16.35-.18l-.44-.16-.41-.13-.37.13a1.64,1.64,0,0,0-.37.17,7.39,7.39,0,0,0,.85.31,2.4,2.4,0,0,0,.39-.14ZM16.17,2.28c.07,0,.07,0,0-.09l-.39-.12L15.46,2l-.33.12c-1.14.41-1.23.45-1.15.48l.36.13.29.11.73-.25.81-.29Zm2.61.27a1.8,1.8,0,0,0-.38-.14L18,2.28l-.34.13a1.51,1.51,0,0,0-.33.14,1.58,1.58,0,0,0,.37.15l.37.12.34-.12a2.22,2.22,0,0,0,.34-.15Zm-8-.14c.56-.2.54-.17.2-.31A1.8,1.8,0,0,0,10.54,2a3,3,0,0,0-.48.13c-.42.13-.43.15-.15.24l.27.1c.21.08.21.08.55,0Zm2.17-.17a3.57,3.57,0,0,0,.79-.3l-.38-.15L13,1.67l-.34.12-.43.15-.14,0a3,3,0,0,0-.73.24,4.82,4.82,0,0,0,.73.29l.84-.27Z" transform="translate(0 -0.01)"/><path class="cls-4" d="M12.58,31.31,8.82,29.59,6.43,28.48c-.32-.15-.73-.34-.91-.41l-2.06-.93L.91,26l-.86-.4s0-1.77,0-8.45C0,12.49,0,8.7,0,8.7l.36.16c.57.27.51.31.5-.42V7.8L.46,7.61,0,7.43V4.83l.13,0,1-.33c2.29-.77,6.68-2.2,6.74-2.2a3.13,3.13,0,0,1,.4.12l.32.13.44-.14.44-.13-.32-.12C9,2.07,8.87,2,8.85,2S12.72.65,14.26.17L14.67,0l.77.26.77.26-.36.11a2.69,2.69,0,0,0-.35.14,1.55,1.55,0,0,0,.38.15l.39.13L16.66,1l.4-.13,1.67.56c.93.3,1.69.56,1.69.57a.73.73,0,0,1-.24.11c-.5.18-.5.15,0,.32l.45.15.32-.12.41-.14s1,.3,2.18.68l2.36.77a1.37,1.37,0,0,1,.25.1l-.73.32-.73.34a1.94,1.94,0,0,0,.47.18,1.46,1.46,0,0,1,.43.19A2.84,2.84,0,0,1,25.2,5a1,1,0,0,1-.46.13,3.91,3.91,0,0,1-.89-.32,1.32,1.32,0,0,1,.37-.19c.33-.15.35-.16.26-.2L24,4.29l-.39-.13-.79.33-.8.34a1.51,1.51,0,0,0,.33.13l.57.22c.12.06.42.17.64.25l.92.31.54.17.67-.29.77-.34c.17-.08.15-.09-.36-.26a2.88,2.88,0,0,1-.42-.16,1.64,1.64,0,0,1,.36-.2l.39-.17.49.16L28,5l.53.16L28.83,5a2,2,0,0,1,.41-.16c.05,0,.06,1.22.05,10.36V25.54l-4.19,1.9L20.5,29.53c-1.53.71-5.9,2.68-5.93,2.68l-2-.9ZM11,13.05v-.63L10.08,12V10.72l-.31-.14L9,10.24,8.43,10l-.17-.07v2.57l.43.2a3.27,3.27,0,0,1,.47.23c.06,0,1.69.79,1.76.8s.05-.15.05-.63Zm3.15-2.26,1-.44a3.15,3.15,0,0,0,.51-.24s-1.84-.86-2-.9a2.25,2.25,0,0,0-.57.18l-.48.21-.19-.07-.48-.21-.31-.14.5-.2a2.54,2.54,0,0,0,.48-.23s-.43-.21-.93-.43c-.85-.38-1-.47-.86-.47a.35.35,0,0,0,.14,0,5.07,5.07,0,0,1,.77-.29,3.9,3.9,0,0,1,.48.18l.47.18.51.21.49.21.45-.19.49-.22a4.36,4.36,0,0,0-.89-.41l-.52-.2-.49-.21-.5.2-.49.2-.44-.19a2.51,2.51,0,0,1-.44-.21s.41-.18.91-.38l1-.38a4.51,4.51,0,0,0-.9-.38s-.37.13-.75.28l-1,.37-.27.1-.41-.17c-.23-.1-.44-.19-.46-.21l-.44-.2-.42-.18a4.54,4.54,0,0,1,.46-.18A2.49,2.49,0,0,0,9,5.55a2.53,2.53,0,0,0-.4-.19c-.3-.11-.37-.16-.32-.19S9.79,4.61,10,4.55c0,0,.07,0,.07,0a3.1,3.1,0,0,0-.87-.33,2.81,2.81,0,0,0-.54.16l-.88.33-.45.17A1.62,1.62,0,0,0,7.71,5a2.91,2.91,0,0,1,.41.19l-.36.16-.48.17c-.09,0-.06.05.29.2A2.91,2.91,0,0,1,8,5.91a1.58,1.58,0,0,1-.5.22l-1,.36a1.47,1.47,0,0,0-.45.2A3.7,3.7,0,0,0,6.9,7l.63-.23.29-.11a3.34,3.34,0,0,1,.93.4,3.74,3.74,0,0,1-.5.22l-.46.17L8,7.56l.41.19a1.2,1.2,0,0,0,.29.1,4.26,4.26,0,0,0,.5-.18,3.77,3.77,0,0,1,.49-.18,5.11,5.11,0,0,1,.94.41l-.48.22a2.18,2.18,0,0,0-.49.22,5.66,5.66,0,0,0,.89.4,4.58,4.58,0,0,1,.94.45,2.84,2.84,0,0,1-.49.22c-.26.11-.44.21-.42.23s.55.26,1.17.54l1.47.67.39.16.54-.22Zm-11.06-2,.7.32a6.3,6.3,0,0,0,.76.34s0-.27,0-.61V8.21l-.35-.16-.54-.24c-.18-.07-.63-.29-1.11-.53l-.46-.22L1.86,7v2.6l.85.38V8.63l.31.14Zm5.07-.23a3.42,3.42,0,0,0-.45-.21l-.36-.15V9.44l.43.2.42.19,0-.61,0-.62Zm11.16.81.42-.21A2.84,2.84,0,0,0,19.26,9l-.44-.2a1.79,1.79,0,0,1,.41-.21,1.28,1.28,0,0,0,.4-.22,2.83,2.83,0,0,0-.5-.24l-.49-.19-1,.42a7.91,7.91,0,0,0-.93.44s.45.21,1,.42l1,.4s.13,0,.6-.22ZM9,8.92a.33.33,0,0,0-.15-.05s0,0,.06.06.18.07.09,0Zm13.07-.83c.26-.11.45-.22.43-.24a8,8,0,0,0-1-.36,5.79,5.79,0,0,0-.9.4,10.52,10.52,0,0,0,1,.41l.47-.21ZM20,7.31l.57-.26a11.68,11.68,0,0,1,1.1-.47l.62-.27.35-.16a2.65,2.65,0,0,0,.48-.23,1.78,1.78,0,0,0-.47-.21c-.47-.17-.49-.17-.63-.11l-.71.29c-.32.13-.74.31-.94.41l-1.06.46c-.69.27-.77.31-.73.34l1,.39L20,7.31Zm3.91,0c.26-.12.39-.2.36-.22l-.51-.2-.45-.16-.43.19c-.23.1-.41.2-.39.22a8,8,0,0,0,.94.36,4.11,4.11,0,0,0,.48-.19Zm-8.77-.38a3.78,3.78,0,0,0,.44-.2,3.51,3.51,0,0,0-.45-.2,2.19,2.19,0,0,1-.43-.19,4.35,4.35,0,0,1,.45-.19l.44-.18-.47-.17a3.84,3.84,0,0,1-.47-.2,7.41,7.41,0,0,1,.89-.36c.12,0,1.78-.67,1.78-.69a8,8,0,0,0-.87-.35,5.67,5.67,0,0,1-.84-.34s.38-.16.81-.33a5.91,5.91,0,0,0,.78-.32,4.49,4.49,0,0,0-.81-.28c-.05,0-1.22.4-1.7.59,0,0,.12.09.36.18a3.89,3.89,0,0,1,.43.17L15.07,4a1.13,1.13,0,0,0-.4.19.52.52,0,0,0,.15.07c.39.11.75.29.6.29a4.73,4.73,0,0,0-.76.29,8,8,0,0,1-.74.3c-.21.07-.23.07-.73-.13l-.39-.15L12.4,5a2.48,2.48,0,0,0-.43.18,6.35,6.35,0,0,0,.83.38,9,9,0,0,1,.87.38,1.73,1.73,0,0,1-.42.2l-.43.16.42.17c.23.1.44.19.46.21a6.78,6.78,0,0,0,1,.39l.47-.19ZM4.6,6.5l.46-.18a1.56,1.56,0,0,0-.41-.2l-.4-.18-.44.15c-.58.21-.57.2-.34.3l.41.19.25.09L4.6,6.5Zm2.07-.77a1.88,1.88,0,0,0,.43-.19l-.41-.19-.38-.16-.48.17a3.36,3.36,0,0,0-.49.19,1.3,1.3,0,0,0,.36.18l.39.18a.06.06,0,0,0,.08,0l.5-.19Zm-3.48-.1c1.29-.43,2.28-.78,2.26-.8l-.36-.16a1.5,1.5,0,0,1-.36-.19,5.63,5.63,0,0,1,.91-.35l.93-.31-.36-.15-.36-.15-1,.32-1.47.47a2.13,2.13,0,0,0-.48.18,1.56,1.56,0,0,0,.33.16l.34.17a6.56,6.56,0,0,1-1,.36c-.54.18-1,.35-1,.36a3.89,3.89,0,0,0,.74.37l.85-.28Zm14.66.17.39-.17c.08,0,.12-.07.1-.08a2.84,2.84,0,0,0-.48-.2l-.45-.16L17,5.36a2.17,2.17,0,0,0-.44.21.65.65,0,0,0,.2.1l.41.15a.75.75,0,0,0,.71,0ZM19.7,5l.42-.17-.45-.16a2.06,2.06,0,0,1-.45-.19,1.58,1.58,0,0,1,.39-.18A1.93,1.93,0,0,0,20,4.15,3.91,3.91,0,0,0,19.52,4l-.44-.16L18.7,4a1.29,1.29,0,0,0-.38.19,1.58,1.58,0,0,0,.39.18,2.09,2.09,0,0,1,.39.16,1.49,1.49,0,0,1-.35.17,2.4,2.4,0,0,0-.39.16,6.44,6.44,0,0,0,.9.36A4.52,4.52,0,0,0,19.7,5ZM12.38,4.3l.31-.11c.07,0,.06,0-.06-.1A.71.71,0,0,0,12.42,4a1.61,1.61,0,0,1-.25-.09L12,3.83l.45-.16a2.63,2.63,0,0,0,.43-.18l-.42-.16L12,3.17l-.44.16-.84.3c-.58.2-.57.19-.14.35,1.38.53,1.3.51,1.43.45l.34-.13Zm8.9-.64c.2-.08.36-.16.34-.18l-.46-.18c-.47-.16-.42-.16-.87,0l-.21.08c-.07,0-.13.07-.13.09a4.58,4.58,0,0,0,.89.31,2,2,0,0,0,.44-.14ZM19.43,3a2,2,0,0,0,.36-.15,1.64,1.64,0,0,0-.42-.16l-.46-.17a4,4,0,0,0-.84-.28,2.28,2.28,0,0,0-.79.3c.06,0,1.67.58,1.73.59A3,3,0,0,0,19.43,3Zm-8-.27,1.31-.43c1.22-.4,1.18-.36.57-.57L13,1.65l-.83.3-.8-.29-.84.27c-.46.15-.85.28-.87.3a1.56,1.56,0,0,0,.38.18l.78.28.38.14.25-.07Zm4.08-.21.81-.3a2,2,0,0,0-.41-.15L15.46,2l-.82.28-.83.3s.06,0,.16.08l.38.14a1.37,1.37,0,0,0,.27.08,8.2,8.2,0,0,0,.87-.28Z" transform="translate(0 -0.01)"/><path class="cls-5" d="M13.48,31.7,10.2,30.2l-.93-.43-1.56-.71-1.3-.6V27.21L6,27l-.44-.19c-.06,0-.07,0-.07.59s0,.61,0,.59l-1-.44L3.18,27l-.41-.18,0-.64,0-.63-.85-.38,0,.62,0,.62-.57-.27-.89-.41-.33-.15,0-1.72c0-1.56,0-8.62,0-8.62l.41.18.41.18s0-.58,0-1.28V13l-.35-.16c-.2-.08-.4-.18-.44-.2s-.09-.07-.09-2c0-1.07,0-2,0-2l.35.16c.57.27.51.31.5-.42V7.8L.46,7.61,0,7.43V4.83l.13,0,1-.33c2.29-.77,6.68-2.2,6.74-2.2a2.34,2.34,0,0,1,.4.13l.32.12.44-.14.44-.13-.32-.12C9,2.07,8.87,2,8.85,2S12.72.65,14.26.17L14.67,0l.77.26.77.26-.36.11a2.69,2.69,0,0,0-.35.14,1.55,1.55,0,0,0,.38.15l.39.13L16.66,1l.4-.13,1.67.56c.93.3,1.69.56,1.69.57a.73.73,0,0,1-.24.11c-.5.18-.5.15,0,.32l.45.15.32-.12.41-.14s1,.3,2.18.68l2.36.77a1.37,1.37,0,0,1,.25.1l-.73.32-.73.34a1.94,1.94,0,0,0,.47.18,1.46,1.46,0,0,1,.43.19A2.84,2.84,0,0,1,25.2,5a1,1,0,0,1-.46.13,3.91,3.91,0,0,1-.89-.32,1.32,1.32,0,0,1,.37-.19c.33-.15.35-.16.26-.2L24,4.29l-.39-.13-.79.33-.8.34a1.51,1.51,0,0,0,.33.13l.57.22c.12.06.42.17.64.25l.92.31.54.17.67-.29.77-.34c.17-.08.15-.09-.36-.26a2.88,2.88,0,0,1-.42-.16,1.64,1.64,0,0,1,.36-.2l.39-.17.49.16L28,5l.53.16L28.83,5a2,2,0,0,1,.41-.16c.05,0,.06,1.23.06,10.35V25.52l-4.48,2-6.33,2.88-2,.92c-1,.45-1.88.85-1.9.85l-1.09-.51Zm-.7-3.55v-.63l-.44-.2-.43-.2v1.27l.41.19a3.52,3.52,0,0,0,.45.19,3.46,3.46,0,0,0,0-.62Zm1.83-.45v-.63l-.3-.13-.61-.29c-.49-.23-.84-.38-.86-.38s0,.28,0,.63v.64l.86.39.89.4a4.13,4.13,0,0,0,0-.63ZM10,26.89v-.63l-.39-.18a3.39,3.39,0,0,0-.43-.18s0,.15,0,.61,0,.61,0,.63.77.37.81.38a5.2,5.2,0,0,0,0-.63ZM3.64,25.27v-.63l-.35-.16-.45-.2-.09,0v1.28l.42.19.44.19a3,3,0,0,0,0-.63Zm10-.59v-.62l-.11,0-.43-.19-.31-.14v1.23l.41.19.43.19s0-.27,0-.61Zm-7.29-.74v-.63L6,23.14l-.45-.2-.09,0v1.28l.42.19.44.19a3.08,3.08,0,0,0,0-.63ZM10,23v-.63L9.23,22l-.88-.4-.09,0v1.28l.83.39c.47.21.87.39.9.39s0-.13,0-.63Zm2.73-.66S11,21.53,11,21.53a3.21,3.21,0,0,0,0,.64v.63l1.78.82V23a4,4,0,0,0,0-.65Zm-7.3-.11v-.65l-.41-.18a3.52,3.52,0,0,0-.45-.19,3.53,3.53,0,0,0,0,.63v.63l.43.2.43.19s0-.28,0-.63Zm.93-.88v-.63l-.21-.1-.44-.2-.24-.1v1.26l.42.19.44.2a3,3,0,0,0,0-.62Zm-1.82-.83v-.64l-.87-.4-.91-.41a4.59,4.59,0,0,0,0,1.28s1.73.81,1.76.81,0-.28,0-.64Zm10-1.89V18l-.38-.17-.45-.2c-.06,0-.06.05-.06.61v.63l.41.2.45.2a4.13,4.13,0,0,0,0-.63ZM11,18.26v-.63l-.9-.42-.9-.41,0,.61a2,2,0,0,0,0,.66s1.71.82,1.77.83,0-.29,0-.64ZM8.21,17v-.64L7.35,16l-.89-.4a4.05,4.05,0,0,0,0,.62v.63l.22.09,1.4.65.15.07s0-.28,0-.63Zm-4.54-.8v-.63l-.88-.4c-.48-.23-.89-.41-.9-.41a5.34,5.34,0,0,0,0,.63V16l.28.12c.16.07.55.25.86.41l.63.28s.05-.14,0-.63Zm.86-.88V14.7l-.4-.18-.43-.19a4.86,4.86,0,0,0,0,.61v.6l.42.2.42.2s0-.27,0-.61ZM11,13.05v-.63L10.08,12V10.72l-.31-.14L9,10.24,8.43,10l-.17-.07v2.57l.43.2a3.27,3.27,0,0,1,.47.23c.06,0,1.69.79,1.76.8s.05-.15.05-.63Zm-7.33-.73v-.63l-.42-.2-.45-.2a5.34,5.34,0,0,0,0,.63v.63l.42.2.44.2a3,3,0,0,0,0-.63Zm10.48-1.53,1-.44a3.15,3.15,0,0,0,.51-.24s-1.84-.86-2-.9a2.25,2.25,0,0,0-.57.18l-.48.21-.19-.07-.48-.21-.31-.14.5-.2a2.54,2.54,0,0,0,.48-.23s-.43-.21-.93-.43c-.85-.38-1-.47-.86-.47a.35.35,0,0,0,.14,0,5.07,5.07,0,0,1,.77-.29,3.9,3.9,0,0,1,.48.18l.47.18.51.21.49.21.45-.19.49-.22a4.36,4.36,0,0,0-.89-.41l-.52-.2-.49-.21-.5.2-.49.2-.44-.19a2.51,2.51,0,0,1-.44-.21s.41-.18.91-.38l1-.38a4.51,4.51,0,0,0-.9-.38L11,6.22l-1,.37-.27.1-.41-.17c-.23-.1-.44-.19-.46-.21l-.44-.2-.42-.18a4.54,4.54,0,0,1,.46-.18A2.49,2.49,0,0,0,9,5.55a2.53,2.53,0,0,0-.4-.19c-.3-.11-.37-.16-.32-.19S9.79,4.61,10,4.55c0,0,.07,0,.07,0a3.1,3.1,0,0,0-.87-.33,2.81,2.81,0,0,0-.54.16l-.88.33-.45.17A1.62,1.62,0,0,0,7.71,5a2.91,2.91,0,0,1,.41.19l-.36.16-.48.17c-.09,0-.06.05.29.2A2.91,2.91,0,0,1,8,5.91a1.58,1.58,0,0,1-.5.22l-1,.36a1.47,1.47,0,0,0-.45.2A3.7,3.7,0,0,0,6.9,7l.63-.23.29-.11a3.34,3.34,0,0,1,.93.4,3.74,3.74,0,0,1-.5.22l-.46.17L8,7.56l.41.19a1.2,1.2,0,0,0,.29.1,4.26,4.26,0,0,0,.5-.18,3.77,3.77,0,0,1,.49-.18,5.89,5.89,0,0,1,.94.41l-.48.22a2.18,2.18,0,0,0-.49.22,5.66,5.66,0,0,0,.89.4,4.58,4.58,0,0,1,.94.45,2.84,2.84,0,0,1-.49.22c-.26.11-.44.21-.42.23s.55.26,1.17.54l1.47.67.39.16.54-.22Zm-11.06-2,.7.32a6.3,6.3,0,0,0,.76.34s0-.27,0-.61V8.21l-.35-.16-.54-.24c-.18-.07-.63-.29-1.11-.53l-.46-.22L1.86,7v2.6l.85.38V8.63l.31.14Zm5.07-.23a3.42,3.42,0,0,0-.45-.21l-.36-.15V9.44l.43.2.42.19,0-.61,0-.62Zm11.16.81.42-.21A2.84,2.84,0,0,0,19.26,9l-.44-.2a1.79,1.79,0,0,1,.41-.21,1.28,1.28,0,0,0,.4-.22,2.83,2.83,0,0,0-.5-.24l-.49-.19-1,.42a7.91,7.91,0,0,0-.93.44s.45.21,1,.42l1,.4s.13,0,.6-.22ZM9,8.92a.33.33,0,0,0-.15-.05s0,0,.06.06.18.07.09,0Zm13.07-.83c.26-.11.45-.22.43-.24a8,8,0,0,0-1-.36,5.79,5.79,0,0,0-.9.4,10.52,10.52,0,0,0,1,.41l.47-.21ZM20,7.31l.57-.26a11.68,11.68,0,0,1,1.1-.47l.62-.27.35-.16a2.65,2.65,0,0,0,.48-.23,1.78,1.78,0,0,0-.47-.21c-.47-.17-.49-.17-.63-.11l-.71.29c-.32.13-.74.31-.94.41l-1.06.46c-.69.27-.77.31-.73.34l1,.39L20,7.31Zm3.91,0c.26-.12.39-.2.36-.22l-.51-.2-.45-.16-.43.19c-.23.1-.41.2-.39.22a8,8,0,0,0,.94.36,4.11,4.11,0,0,0,.48-.19Zm-8.77-.38a3.78,3.78,0,0,0,.44-.2,3.51,3.51,0,0,0-.45-.2,2.19,2.19,0,0,1-.43-.19,4.35,4.35,0,0,1,.45-.19l.44-.18-.47-.17a3.84,3.84,0,0,1-.47-.2,7.41,7.41,0,0,1,.89-.36c.12,0,1.78-.67,1.78-.69a8,8,0,0,0-.87-.35,5.67,5.67,0,0,1-.84-.34s.38-.16.81-.33a5.91,5.91,0,0,0,.78-.32,4.49,4.49,0,0,0-.81-.28c-.05,0-1.22.4-1.7.59,0,0,.12.09.36.18a3.89,3.89,0,0,1,.43.17L15.07,4a1.13,1.13,0,0,0-.4.19.52.52,0,0,0,.15.07c.39.11.75.29.6.29a4.73,4.73,0,0,0-.76.29,8,8,0,0,1-.74.3c-.21.07-.23.07-.73-.13l-.39-.15L12.4,5a2.48,2.48,0,0,0-.43.18,6.35,6.35,0,0,0,.83.38,9,9,0,0,1,.87.38,1.73,1.73,0,0,1-.42.2l-.43.16.42.17c.23.1.44.19.46.21a6.78,6.78,0,0,0,1,.39l.47-.19ZM4.6,6.5l.46-.18a1.56,1.56,0,0,0-.41-.2l-.4-.18-.44.15c-.58.21-.57.2-.34.3l.41.19.25.09L4.6,6.5Zm2.07-.77a1.88,1.88,0,0,0,.43-.19l-.41-.19-.38-.16-.48.17a3.36,3.36,0,0,0-.49.19,1.3,1.3,0,0,0,.36.18l.39.18a.06.06,0,0,0,.08,0l.5-.19Zm-3.48-.1c1.29-.43,2.28-.78,2.26-.8l-.36-.16a1.5,1.5,0,0,1-.36-.19,5.63,5.63,0,0,1,.91-.35l.93-.31-.36-.15-.36-.15-1,.32-1.47.47a2.13,2.13,0,0,0-.48.18,1.56,1.56,0,0,0,.33.16l.34.17a6.56,6.56,0,0,1-1,.36c-.54.18-1,.35-1,.36a3.89,3.89,0,0,0,.74.37l.85-.28Zm14.66.17.39-.17c.08,0,.12-.07.1-.08a2.84,2.84,0,0,0-.48-.2l-.45-.16L17,5.36a2.17,2.17,0,0,0-.44.21.65.65,0,0,0,.2.1l.41.15a.75.75,0,0,0,.71,0ZM19.7,5l.42-.17-.45-.16a2.06,2.06,0,0,1-.45-.19,1.58,1.58,0,0,1,.39-.18A1.93,1.93,0,0,0,20,4.15,3.91,3.91,0,0,0,19.52,4l-.44-.16L18.7,4a1.29,1.29,0,0,0-.38.19,1.58,1.58,0,0,0,.39.18,2.09,2.09,0,0,1,.39.16,1.49,1.49,0,0,1-.35.17,2.4,2.4,0,0,0-.39.16,6.44,6.44,0,0,0,.9.36A4.52,4.52,0,0,0,19.7,5ZM12.38,4.3l.31-.11c.07,0,.06,0-.06-.1A.71.71,0,0,0,12.42,4a1.61,1.61,0,0,1-.25-.09L12,3.83l.45-.16a2.63,2.63,0,0,0,.43-.18l-.42-.16L12,3.17l-.44.16-.84.3c-.58.2-.57.19-.14.35,1.38.53,1.3.51,1.43.45l.34-.13Zm8.9-.64c.2-.08.36-.16.34-.18l-.46-.18c-.47-.16-.42-.16-.87,0l-.21.08c-.07,0-.13.07-.13.09a4.58,4.58,0,0,0,.89.31,2,2,0,0,0,.44-.14ZM19.43,3a2,2,0,0,0,.36-.15,1.64,1.64,0,0,0-.42-.16l-.46-.17a4,4,0,0,0-.84-.28,2.28,2.28,0,0,0-.79.3c.06,0,1.67.58,1.73.59A3,3,0,0,0,19.43,3Zm-8-.27,1.31-.43c1.22-.4,1.18-.36.57-.57L13,1.65l-.83.3-.8-.29-.84.27c-.46.15-.85.28-.87.3a1.56,1.56,0,0,0,.38.18l.78.28.38.14.25-.07Zm4.08-.21.81-.3a2,2,0,0,0-.41-.15L15.46,2l-.82.28-.83.3s.06,0,.16.08l.38.14a1.37,1.37,0,0,0,.27.08,8.2,8.2,0,0,0,.87-.28Z" transform="translate(0 -0.01)"/><g class="cls-6"><path class="cls-7" d="M13.48,31.7,10.2,30.2l-.93-.43-1.56-.71-1.3-.6V27.21L6,27l-.44-.19c-.06,0-.07,0-.07.59s0,.61,0,.59l-1-.44L3.18,27l-.41-.18,0-.64,0-.63-.85-.38,0,.62,0,.62-.57-.27-.89-.41-.33-.15,0-1.72c0-1.56,0-8.62,0-8.62l.41.18.41.18s0-.58,0-1.28V13l-.35-.16c-.2-.08-.4-.18-.44-.2s-.09-.07-.09-2a13.11,13.11,0,0,1,0-1.93l.43.2a1.84,1.84,0,0,0,.42.16,6,6,0,0,0,0-.65c0-.58,0-.62.07-.6l.45.2.37.17v.66c0,.58,0,.66.07.7l.46.21.38.18V9.33c0-.46,0-.63.06-.62s.43.18.88.4.85.38.86.37a3.29,3.29,0,0,0,0-.65V8.19l-.9-.41-.9-.41V6.07L2.59,6c-.09,0-.15-.08-.13-.1s.68-.25,1.48-.52,1.47-.5,1.49-.53,0-.06-.1-.1L5,4.59l-.24-.11,1-.3a7.57,7.57,0,0,0,.94-.35,1.16,1.16,0,0,0-.37-.18,2,2,0,0,1-.36-.17l.42-.16a1.35,1.35,0,0,0,.4-.16A2.18,2.18,0,0,0,6.36,3a1.21,1.21,0,0,1-.29-.14,1.91,1.91,0,0,1,.48-.18L7,2.54l.36.14.37.14.42-.13.91-.28.48-.15.36.13a2.68,2.68,0,0,1,.38.16S9,3.06,8.08,3.32a1.86,1.86,0,0,0-.43.17A1.5,1.5,0,0,0,8,3.65a2.73,2.73,0,0,1,.35.16l-1.21.44c-1.57.55-1.63.57-1.63.61A1.73,1.73,0,0,0,5.85,5l.34.16a1.82,1.82,0,0,1-.44.18,2.06,2.06,0,0,0-.45.19,2.91,2.91,0,0,0,.41.2l.4.18-.49.17-.53.18L4.66,6.1l-.4-.18-.5.18-.54.19s.28.15.66.33l.69.31V8.18l.44.2.43.2V7.33L5.21,7.2a1.65,1.65,0,0,1-.27-.14l.51-.19L6,6.68l.41.19.45.21a1.79,1.79,0,0,1-.46.2l-.48.18L6,7.53a1.57,1.57,0,0,0,.26.12c.08,0,.16.07.17.11s0,.33,0,.66V9l.44.21.49.25.46.22.39.18v1.3l-.13-.06-.39-.18a1.52,1.52,0,0,0-.32-.12s0,.15,0,.62v.62l.88.4c.49.21.91.41.93.43s.06.23.06.67l0,.63.38.17.42.18a3.86,3.86,0,0,0,0-.61c0-.71-.07-.67.53-.39l.4.19V11.14l-.66-.32-.91-.44-.25-.11v-.6c0-.39,0-.6,0-.6a.7.7,0,0,1,.2.08c.15.08.27.11.17,0S9.74,9.08,10,9l.52-.2L11,9l.48.21L11,9.37l-.53.22c-.06,0,.14.13.74.41s1,.46,1.25.55l.73.32a1.5,1.5,0,0,0,.37.14,3.93,3.93,0,0,0,.56-.22l.48-.22.38.17c.69.31.56.31,1.14,0a3.18,3.18,0,0,0,.51-.26l-.31-.16-.62-.27c-.48-.22-1-.46-1.05-.46S13.11,9,12.19,8.55l-.54-.24,1-.4.44.19a3.64,3.64,0,0,0,.55.2,2.68,2.68,0,0,0,.55-.19l.45-.19.45.19a4.22,4.22,0,0,0,.52.19,7.45,7.45,0,0,0,1.11-.46l.53-.23a.93.93,0,0,0,.25-.12,1.52,1.52,0,0,0-.42-.21,3.51,3.51,0,0,1-.45-.2L16.86,7l.46-.19.22-.1-.43-.17-.46-.19a1.75,1.75,0,0,1,.4-.19L17.47,6l.43.16a4,4,0,0,0,.51.17,4.22,4.22,0,0,0,.52-.19l.44-.18.47.17a3.48,3.48,0,0,1,.48.21,1.69,1.69,0,0,1-.43.21L19,6.88l-.47.2.19.08.49.19a1.35,1.35,0,0,1,.31.14,1.56,1.56,0,0,1-.41.2c-1.06.45-2.38,1-2.38,1a10.62,10.62,0,0,0,1.48.63l.57.23.57-.26c.94-.43,2.23-1,2.74-1.24a3.78,3.78,0,0,0,.51-.25,7.26,7.26,0,0,1,.89-.4A3.68,3.68,0,0,0,24.29,7a3.67,3.67,0,0,0-.4-.16l-.46-.17c-.09,0-.06,0,.32-.22a1.37,1.37,0,0,0,.38-.21,4.32,4.32,0,0,0-.47-.19,1.22,1.22,0,0,1-.41-.18,2.84,2.84,0,0,1,.38-.18L24,5.58l.47.17a4.43,4.43,0,0,0,.55.16,2.63,2.63,0,0,0,.48-.18l.41-.18.44.16a4.24,4.24,0,0,0,.51.16l.43-.17.38-.18-.41-.13-.52-.19L26.17,5l-.44-.16.35-.15.35-.15,2,.65.4-.18.44-.18s0,4.66,0,10.35V25.52l-4.48,2-6.33,2.88-2,.92c-1,.45-1.88.85-1.9.85l-1.09-.51Zm-.7-3.55v-.63l-.44-.2-.43-.2v1.27l.41.19a3.52,3.52,0,0,0,.45.19,3.46,3.46,0,0,0,0-.62Zm1.83-.45v-.63l-.3-.13-.61-.29c-.49-.23-.84-.38-.86-.38s0,.28,0,.63v.64l.86.39.89.4a4.13,4.13,0,0,0,0-.63ZM10,26.89v-.63l-.39-.18a3.39,3.39,0,0,0-.43-.18s0,.15,0,.61,0,.61,0,.63.77.37.81.38a5.2,5.2,0,0,0,0-.63ZM3.64,25.27v-.63l-.35-.16-.45-.2-.09,0v1.28l.42.19.44.19a3,3,0,0,0,0-.63Zm10-.59v-.62l-.11,0-.43-.19-.31-.14v1.23l.41.19.43.19s0-.27,0-.61Zm-7.29-.74v-.63L6,23.14l-.45-.2-.09,0v1.28l.42.19.44.19a3.08,3.08,0,0,0,0-.63ZM10,23v-.63L9.23,22l-.88-.4-.09,0v1.28l.83.39c.47.21.87.39.9.39s0-.13,0-.63Zm2.73-.66S11,21.53,11,21.53a3.21,3.21,0,0,0,0,.64v.63l1.78.82V23a4,4,0,0,0,0-.65Zm-7.3-.11v-.65l-.41-.18a3.52,3.52,0,0,0-.45-.19,3.53,3.53,0,0,0,0,.63v.63l.43.2.43.19s0-.28,0-.63Zm.93-.88v-.63l-.21-.1-.44-.2-.24-.1v1.26l.42.19.44.2a3,3,0,0,0,0-.62Zm-1.82-.83v-.64l-.87-.4-.91-.41a4.59,4.59,0,0,0,0,1.28s1.73.81,1.76.81,0-.28,0-.64Zm10-1.89V18l-.38-.17-.45-.2c-.06,0-.06.05-.06.61v.63l.41.2.45.2a4.13,4.13,0,0,0,0-.63ZM11,18.26v-.63l-.9-.42-.9-.41,0,.61a2,2,0,0,0,0,.66s1.71.82,1.77.83,0-.29,0-.64ZM8.21,17v-.64L7.35,16l-.89-.4a4.05,4.05,0,0,0,0,.62v.63l.22.09,1.4.65.15.07s0-.28,0-.63Zm-4.54-.8v-.63l-.88-.4c-.48-.23-.89-.41-.9-.41a5.34,5.34,0,0,0,0,.63V16l.28.12c.16.07.55.25.86.41l.63.28s.05-.14,0-.63Zm.86-.88V14.7l-.4-.18-.43-.19a4.86,4.86,0,0,0,0,.61v.6l.42.2.42.2s0-.27,0-.61Zm8.26-2.74V12l-.19-.08-.43-.19-.23-.1v1.22l.38.18.42.17a3.79,3.79,0,0,0,0-.6Zm-9.15-.27v-.63l-.42-.2-.45-.2a5.34,5.34,0,0,0,0,.63v.63l.42.2.44.2a3,3,0,0,0,0-.63Zm11-.18V11.5l-.13-.06-.44-.2-.3-.14v1.31l.42.18.42.2s0-.29,0-.65ZM4.52,10.79a6.09,6.09,0,0,0-.82-.39s0,.29,0,.64v.63l.43.19.42.19v-.61c0-.45,0-.62,0-.65ZM6.39,11v-.63L6,10.15A3.52,3.52,0,0,0,5.54,10a2.51,2.51,0,0,0,0,.62v.61l.42.19.44.2a3,3,0,0,0,0-.62ZM10,9.39a.3.3,0,0,0-.11,0s0,0,0,0a.3.3,0,0,0,.11,0s0,0,0,0ZM7.36,8.18,6.88,8l-.22-.1.52-.19.51-.21-.41-.19c-.22-.09-.39-.18-.37-.2s.93-.36,1-.36l.33.13.4.18c.1,0,.1,0-.1.13l-.23.09a2.8,2.8,0,0,0-.52.23,2,2,0,0,0,.42.21,1.76,1.76,0,0,1,.4.21,5.29,5.29,0,0,1-.72.3l-.24.09ZM9.12,8.1a2,2,0,0,1-.42-.21l.5-.21.5-.19.43.19a2.63,2.63,0,0,1,.43.21,6.39,6.39,0,0,1-1,.4,3,3,0,0,1-.45-.19ZM21,7.3a2,2,0,0,1-.46-.22A3.07,3.07,0,0,1,21,6.87l.42-.18.5.18a4.53,4.53,0,0,1,.51.22,6,6,0,0,1-.88.4L21,7.3Zm-7.87,0A1.26,1.26,0,0,1,12.73,7a3.83,3.83,0,0,1,.46-.2l.42-.16.48.19a3,3,0,0,1,.48.22,5.7,5.7,0,0,1-.92.36s-.27-.09-.51-.19Zm2,0a1.78,1.78,0,0,1-.41-.2l.45-.21.45-.18.46.19.46.2a4.53,4.53,0,0,1-.91.37,3.14,3.14,0,0,1-.5-.17ZM9.38,6.47,9,6.3l.47-.17L9.91,6l.4.17.4.17a7.88,7.88,0,0,1-.91.35l-.42-.17Zm3.3-.19a8,8,0,0,0-.92-.37s-.38-.14-1.26-.51a1.54,1.54,0,0,1-.38-.2A1.93,1.93,0,0,1,10.61,5a18.4,18.4,0,0,0,2.17-.85s-.09-.07-.2-.11l-.37-.14-.16-.07.24-.09.41-.15c.09,0,.16-.08.14-.1l-.43-.17L12,3.16l-.74.27c-1.07.38-1.09.39-1,.42a2.54,2.54,0,0,0,.39.17l.36.14-.43.15-.43.15L9.69,4.3l-.45-.17a5.74,5.74,0,0,1-.78-.32s1.25-.47,2.68-.94l1-.33.39.15.39.14.83-.29.45.17.46.16.81-.3c.45-.16.83-.31.84-.32s0,0,0,0L15,1.78l-.35-.13-.42.15-.41.14-.44-.14-.86-.29-.41-.14-.85.27-.84.28-.33-.12c-.18-.06-.33-.12-.32-.14L11.88,1l2-.68.78.27.36-.11.36-.12.73.24-.37.12a1,1,0,0,0-.34.15l.43.15.4.13.4-.13.41-.13.4.13.41.14a1.83,1.83,0,0,1-.33.13l-.32.14a2.24,2.24,0,0,0,.34.14,1.22,1.22,0,0,1,.35.14,1.44,1.44,0,0,1-.35.15,1.09,1.09,0,0,0-.34.14,1.76,1.76,0,0,0,.34.13,1.1,1.1,0,0,1,.35.15.22.22,0,0,1-.12.07,3.94,3.94,0,0,0-.67.28c-.05,0-.33.13-.63.23l-1.07.37c-.83.3-.79.3-1.24.13l-.39-.15-.41.15A2.72,2.72,0,0,0,13,3.5a1.74,1.74,0,0,0,.82.29,3.37,3.37,0,0,0,.49-.15l.35-.14.22.09.41.16c.11,0,.19.07.18.08l-.85.32-.84.34a2,2,0,0,0,.41.18c.22.09.39.17.37.19L14.11,5l-.39.15L13.25,5l-.46-.18L12.32,5a1.22,1.22,0,0,0-.43.2s1.27.54,1.66.69c0,0,.09,0,.08,0a5.28,5.28,0,0,1-1,.35Zm3.93-4.74A2.55,2.55,0,0,0,17,1.39a1.21,1.21,0,0,0-.37-.15l-.37-.12-.33.12-.39.14s.15.11.68.28l.39-.12Zm-2.47-.31.36-.13S14.37,1,14.18,1L13.84.85,13.5,1a1,1,0,0,0-.32.14,4.45,4.45,0,0,0,.62.24l.34-.11ZM6.54,6.11l-.38-.18a5.09,5.09,0,0,1,.48-.18,2.93,2.93,0,0,0,.48-.2,1.5,1.5,0,0,0-.36-.19c-.21-.08-.36-.16-.34-.18A2.88,2.88,0,0,1,6.84,5c.21-.07.4-.15.42-.16s.08,0,.14,0L7.77,5a1.53,1.53,0,0,1,.29.14,1.49,1.49,0,0,1-.41.19,2.37,2.37,0,0,0-.45.18,1.45,1.45,0,0,0,.37.18A2.84,2.84,0,0,1,8,5.91a3.87,3.87,0,0,1-1,.36,2.24,2.24,0,0,1-.44-.16Zm9-.19a3.11,3.11,0,0,0-.46-.19,1.75,1.75,0,0,1-.39-.19s.43-.17.91-.36l.87-.32L16.9,5a2.7,2.7,0,0,1,.42.17,1.54,1.54,0,0,1-.4.18c-.21.09-.41.17-.43.19a3.16,3.16,0,0,1-.42.18,3.89,3.89,0,0,0-.43.19.06.06,0,0,1-.08,0Zm5.21-.2-.48-.18a1.91,1.91,0,0,1,.37-.18A1.93,1.93,0,0,0,21,5.2L20.6,5a2.57,2.57,0,0,1-.49-.2,3.06,3.06,0,0,0-.45-.19,2,2,0,0,1-.4-.16l.3-.14.38-.16c.07-.05.14,0,.56.11l.48.17.4-.16c.31-.12.38-.16.32-.19L21.27,4l-.37-.13.2-.09.37-.14a.77.77,0,0,0,.22-.1,2.32,2.32,0,0,1,.38-.18l.34-.14A2.27,2.27,0,0,0,22,3l-.43-.14L21.19,3a2,2,0,0,1-.43.14c-.08,0-1.67-.54-1.78-.61s-.05,0,0,0a3.21,3.21,0,0,0,.39-.13l.34-.14.46.16.46.16L21,2.41l.39-.15.88.29c.49.16.9.31.92.32s-.13.09-.33.17l-.35.13,1,.32.36-.14.36-.15,1,.31c.64.21.95.32.9.34l-.77.34-.69.3-.5-.17-.5-.18-.79.33a5.41,5.41,0,0,0-.77.37,2.09,2.09,0,0,0,.44.19,3.61,3.61,0,0,1,.44.17,9.66,9.66,0,0,1-.94.38l-.44.18-.33.14ZM8.61,5.37c-.26-.11-.38-.17-.34-.19L8.74,5l.41-.15.4.16a1.14,1.14,0,0,1,.39.19,4.45,4.45,0,0,1-.89.34,2.65,2.65,0,0,1-.44-.17Zm9.32,0-.46-.19a2.64,2.64,0,0,1,.8-.33,9.18,9.18,0,0,1,1,.34,7.67,7.67,0,0,1-.86.34l-.46-.16ZM24.27,5l-.4-.15.18-.07.34-.15c.22-.1.24-.1.73.08l.42.15L25.22,5a1.48,1.48,0,0,1-.44.15A2.36,2.36,0,0,1,24.27,5Zm-7.38-.67L16,4c-.43-.16-.45-.17-.35-.21l.21-.08.17-.05a.24.24,0,0,0,.12,0s.3-.13.59-.23l.52-.2.42.14a1.68,1.68,0,0,1,.42.18l-.39.18-.4.15.4.15a2.21,2.21,0,0,1,.42.18.88.88,0,0,1-.36.18l-.4.15a3.69,3.69,0,0,1-.51-.17ZM3.48,4l-.33-.15.94-.31c.52-.18,1-.32,1-.32a3.42,3.42,0,0,1,.69.28s-1.9.65-1.95.65L3.48,4ZM18.6,3.66a1.58,1.58,0,0,1-.39-.18A2.2,2.2,0,0,1,19,3.21a2.55,2.55,0,0,1,.81.32,3.11,3.11,0,0,1-.76.27,2.89,2.89,0,0,1-.48-.14Z" transform="translate(0 -0.01)"/><path class="cls-8" d="M14,32l-.9-.41-.35-.17v-.61c0-.49,0-.61.05-.61a1.89,1.89,0,0,1,.36.14l1.42.63s0-.87,0-1.93V27.06l-.37-.17-1.4-.66s-.06-.15-.07-.65a1.64,1.64,0,0,1,0-.61l.38.16c.57.26.51.31.51-.42a3,3,0,0,1,0-.63,3.39,3.39,0,0,1,.43.18l.43.18a2.56,2.56,0,0,0,0-.63v-.64L14.21,23a2.64,2.64,0,0,0-.46-.19,2.51,2.51,0,0,0,0,.62V24l-.85-.39,0-.66,0-.66-.91-.41L11,21.49s0,.58,0,1.3v1.29l.45.21.46.21v1.31l.44.2.45.21v.63a5.2,5.2,0,0,1,0,.63l-.42-.18a3.14,3.14,0,0,0-.45-.18s0,.17,0,.63v.64l.45.22.46.22v1.28l-.52-.24-.87-.4L11,29.3a2.81,2.81,0,0,0,0,.61,3.79,3.79,0,0,1,0,.6l-.9-.39-.87-.4,0-.65,0-.64-.81-.37c-.45-.21-.91-.41-1-.45l-1-.45c-.42-.2-.78-.37-.82-.37s-.06.1-.06.61,0,.61-.07.59L5,27.79l-.38-.17V26.34l-.42-.19L3.7,26v-.64a3.07,3.07,0,0,0,0-.68,3.44,3.44,0,0,0-.46-.23l-.43-.19v.64a5.55,5.55,0,0,1,0,.65l-.42-.18a3.52,3.52,0,0,0-.45-.19,2.26,2.26,0,0,0,0,.61,2.61,2.61,0,0,1,0,.6l-.45-.2L.93,26V23.39l.21.1.45.2.23.11v-.63c0-.44,0-.63.05-.63l.44.19.42.18a5.2,5.2,0,0,0,0-.63,5.34,5.34,0,0,1,0-.63,6,6,0,0,1,.88.42,3.76,3.76,0,0,1,0,.66v.61l.26.11c.31.15,1.4.66,1.48.71s.07.15.07.68l0,.64.41.19c1,.46,1.34.6,1.37.6a3,3,0,0,0,0-.63l0-.63-.42-.2-.43-.19V23.31l.32.15.44.2.14.06,0-1.3v-1.3l-.87-.4c-.47-.22-.89-.4-.92-.4s0,.15,0,.61v.61l-.09,0s-.24-.1-.43-.2l-.35-.16,0-1.3-.9-.41L2.77,19v1.29c0,.71,0,1.29,0,1.29l-.36-.16c-.57-.26-.51-.31-.51.42a2.08,2.08,0,0,1,0,.63l-.43-.18A3.58,3.58,0,0,0,1,22.14a2.46,2.46,0,0,0,0,.61c0,.45,0,.6-.05.6a2.85,2.85,0,0,1-.43-.18L.06,23V20.4l.09,0,.41.18a2.27,2.27,0,0,0,.35.14,2.89,2.89,0,0,0,0-.62v-.63l.44.2.43.2V17.32l-.44-.21-.45-.2V13L.49,12.8,0,12.59V12a5.34,5.34,0,0,1,0-.63l.36.16c.57.26.51.31.51-.42v-.63l-.39-.18-.46-.21S0,9.89,0,9.41a5,5,0,0,1,0-.65s.08,0,.25.06c.45.22.6.28.63.26a3.36,3.36,0,0,0,0-.65c0-.58,0-.62.07-.6l.45.2.37.17V9.54l.42.19L2.7,10s0-.13,0-.61,0-.64,0-.63.43.18.88.4l.86.38a3.51,3.51,0,0,0,0-.66V8.19l-.9-.41-.9-.41V6.07L2.59,6c-.09,0-.15-.08-.13-.1s.68-.25,1.48-.52,1.47-.5,1.49-.53,0-.06-.1-.1L5,4.59l-.24-.11.94-.3a7.37,7.37,0,0,0,.95-.35,1.16,1.16,0,0,0-.37-.18,2,2,0,0,1-.36-.17l.42-.16a1.35,1.35,0,0,0,.4-.16A2.18,2.18,0,0,0,6.36,3a1.21,1.21,0,0,1-.29-.14,1.91,1.91,0,0,1,.48-.18L7,2.54l.36.14.37.14.42-.13.91-.28.48-.15.36.13a2.68,2.68,0,0,1,.38.16S9,3.06,8.08,3.32a1.86,1.86,0,0,0-.43.17A1.5,1.5,0,0,0,8,3.65a2.73,2.73,0,0,1,.35.16l-1.21.44c-1.57.55-1.63.57-1.63.61A1.73,1.73,0,0,0,5.85,5l.34.16a1.82,1.82,0,0,1-.44.18,2.06,2.06,0,0,0-.45.19,2.91,2.91,0,0,0,.41.2l.4.18-.49.17-.53.18L4.66,6.1l-.4-.18-.5.18-.54.19s.28.15.66.33l.69.31V8.18l.44.2.43.2V7.33L5.21,7.2a1.65,1.65,0,0,1-.27-.14l.51-.19L6,6.69l.41.18.45.21a1.79,1.79,0,0,1-.46.2l-.48.18L6,7.53a1.57,1.57,0,0,0,.26.12c.08,0,.16.07.17.11s0,.33,0,.66V9l.44.21.49.25s.24.13.46.22l.39.18v1.3l-.13-.06-.39-.18a1.52,1.52,0,0,0-.32-.12s0,.15,0,.62v.62l.88.4c.49.21.91.41.93.43s.06.23.06.67l0,.63.38.17.42.18a3.86,3.86,0,0,0,0-.61,4.76,4.76,0,0,1,0-.6,1.84,1.84,0,0,1,.3.12l.43.2.18.08V11.14l-.66-.32-.91-.44-.25-.11v-.6c0-.39,0-.6,0-.6a.7.7,0,0,1,.2.08c.15.08.27.11.17,0S9.74,9.08,10,9l.52-.2L11,9l.48.21L11,9.37l-.53.22c-.06,0,.14.13.74.41s1,.46,1.25.55l.73.32a1.5,1.5,0,0,0,.37.14,3.93,3.93,0,0,0,.56-.22l.48-.22.38.17c.69.31.56.31,1.14,0a3.18,3.18,0,0,0,.51-.26l-.31-.16-.62-.27c-.48-.22-1-.46-1.05-.46S13.11,9,12.19,8.55l-.54-.24,1-.4.44.19a3.64,3.64,0,0,0,.55.2,2.68,2.68,0,0,0,.55-.19l.45-.19.45.19a4.22,4.22,0,0,0,.52.19,7.45,7.45,0,0,0,1.11-.46l.53-.23a.93.93,0,0,0,.25-.12,1.52,1.52,0,0,0-.42-.21,3.51,3.51,0,0,1-.45-.2L16.86,7l.46-.19.22-.1-.43-.17-.46-.19a1.75,1.75,0,0,1,.4-.19L17.47,6l.43.16a4,4,0,0,0,.51.17,4.22,4.22,0,0,0,.52-.19l.44-.18.47.17a1.68,1.68,0,0,1,.46.22,1.74,1.74,0,0,1-.43.21L19,6.88l-.47.2.19.08.49.19a1.35,1.35,0,0,1,.31.14,1.56,1.56,0,0,1-.41.2c-1.06.45-2.38,1-2.38,1a10.62,10.62,0,0,0,1.48.63l.57.23.57-.26c.94-.43,2.23-1,2.74-1.24a3.78,3.78,0,0,0,.51-.25,7.26,7.26,0,0,1,.89-.4A3.68,3.68,0,0,0,24.29,7a3.67,3.67,0,0,0-.4-.16l-.46-.17c-.09,0-.06,0,.32-.22a1.37,1.37,0,0,0,.38-.21,4.32,4.32,0,0,0-.47-.19,1.22,1.22,0,0,1-.41-.18,2.84,2.84,0,0,1,.38-.18L24,5.58l.47.17a4.43,4.43,0,0,0,.55.16,2.63,2.63,0,0,0,.48-.18l.41-.18.44.16a4.24,4.24,0,0,0,.51.16l.43-.17.38-.18-.41-.13-.52-.19L26.17,5l-.44-.16.35-.15.35-.15,2,.65.4-.18.44-.18c.05,0,0,20.67,0,20.71s-.39.2-.82.39L25.59,27.2l-1.39.63-3.1,1.41-2.85,1.29-1.32.6-2.14,1-.21.09L14,32Zm-4-5v-.65l-.43-.2-.47-.2a3.21,3.21,0,0,0,0,.65v.65l.41.2c.23.1.44.2.47.2s.05-.15.05-.65Zm0-3.28V22.36L9.17,22a6.42,6.42,0,0,0-.93-.38s0,.6,0,1.3v1.27l.9.41a6.07,6.07,0,0,0,.92.38s0-.6,0-1.3Zm4.58-3.71V18l-.42-.19-.46-.21s0,.25,0,1.28c0,.71,0,1.3,0,1.3L13.26,20l-.46-.2a5.68,5.68,0,0,0,0,.64V21l.87.42c.48.22.89.41.92.41a10.24,10.24,0,0,0,.05-1.93Zm-4.57.5V19.8l.43.19.44.2,0-.92c0-.5,0-1.08,0-1.28s0-.36-.11-.41L9.44,16.9l-.29-.14v2.62l-.39-.17c-.61-.29-.55-.34-.54.4v.64l.85.39A9.26,9.26,0,0,0,10,21c.06,0,.07-.05.07-.62Zm2.71-1.35v-.63l-.41-.19-.44-.19a1.88,1.88,0,0,0,0,.63v.64l.39.19.45.19s0-.15,0-.64ZM5.5,17.69V16.41l-.43-.2L4.6,16a4.18,4.18,0,0,1,0-.66V14.7l.86.39,0-1.26a7.63,7.63,0,0,0,0-1.29,6.06,6.06,0,0,0-.86-.4,9.84,9.84,0,0,0,0,1.26c0,1.14,0,1.26-.06,1.24l-.45-.2-.38-.17V11.68l-.47-.21a14.48,14.48,0,0,0-1.35-.58,5.06,5.06,0,0,0,0,1.26c0,.7,0,1.28,0,1.29l.89.42.87.4v1.28l-.49-.23-.88-.4-.41-.18a2.8,2.8,0,0,0,0,.65V16l.47.22.46.22v1.26l.42.2.47.2a2.45,2.45,0,0,0,0-.62v-.63l.43.19.42.2v1.29l.46.21.46.21s0-.58,0-1.29Zm2.75-.77v-.55L7.35,16l-.93-.41a3.77,3.77,0,0,0,0,.65v.65l.46.21.45.2v1.3l.85.38,0-.73c0-.41,0-1,0-1.28Zm4.54-.43v-.63l-.28-.12-.44-.2-.17-.08v1.28l.39.19.45.19s0-.15,0-.63Zm0-3.9V12l-.19-.08-.43-.19-.23-.1v1.22l.38.18.42.17a3.79,3.79,0,0,0,0-.6Zm1.82-.45V11.5l-.13-.06-.44-.2-.3-.14v1.31l.42.18.42.2s0-.29,0-.65ZM4.52,10.79a6.09,6.09,0,0,0-.82-.39s0,.29,0,.64v.63l.43.19.42.19v-.61c0-.45,0-.62,0-.65ZM6.39,11v-.63L6,10.15A3.52,3.52,0,0,0,5.54,10a2.51,2.51,0,0,0,0,.62v.61l.42.19.44.2a3,3,0,0,0,0-.62ZM10,9.39a.3.3,0,0,0-.11,0s0,0,0,0a.3.3,0,0,0,.11,0s0,0,0,0ZM6,23.08l-.43-.2V21.61l.17.08.45.2.27.12v.63c0,.35,0,.63,0,.63L6,23.08ZM7.36,8.18,6.88,8l-.22-.1.52-.19.51-.21-.41-.19c-.22-.09-.39-.18-.37-.2s.93-.36,1-.36l.33.13.4.18c.1,0,.1,0-.1.13l-.23.09a2.8,2.8,0,0,0-.52.23,2,2,0,0,0,.42.21,1.76,1.76,0,0,1,.4.21,5.29,5.29,0,0,1-.72.3l-.24.09ZM9.12,8.1a2,2,0,0,1-.42-.21l.5-.21.5-.19.43.19a2.63,2.63,0,0,1,.43.21,6.39,6.39,0,0,1-1,.4,3,3,0,0,1-.45-.19ZM21,7.3a2,2,0,0,1-.46-.22A3.07,3.07,0,0,1,21,6.87l.42-.18.5.18a4.53,4.53,0,0,1,.51.22,6,6,0,0,1-.88.4L21,7.3Zm-7.87,0A1.26,1.26,0,0,1,12.73,7a3.83,3.83,0,0,1,.46-.2l.42-.16.48.19a3,3,0,0,1,.48.22,5.7,5.7,0,0,1-.92.36s-.27-.09-.51-.19Zm2,0a1.78,1.78,0,0,1-.41-.2l.45-.21.45-.18.46.19.46.2a4.53,4.53,0,0,1-.91.37,3.14,3.14,0,0,1-.5-.17ZM9.38,6.47,9,6.3l.47-.17L9.91,6l.4.17.4.17a7.88,7.88,0,0,1-.91.35l-.42-.17Zm3.3-.19a8,8,0,0,0-.92-.37s-.38-.14-1.26-.51a1.54,1.54,0,0,1-.38-.2A1.93,1.93,0,0,1,10.61,5a18.4,18.4,0,0,0,2.17-.85s-.09-.07-.2-.11l-.37-.14-.16-.07.24-.09.41-.15c.09,0,.16-.08.14-.1l-.43-.17L12,3.16l-.74.27c-1.07.38-1.09.39-1,.42a2.54,2.54,0,0,0,.39.17l.36.14-.43.15-.43.15L9.69,4.3l-.45-.17a5.74,5.74,0,0,1-.78-.32s1.25-.47,2.68-.94l1-.33.39.15.39.14.83-.29.45.17.46.16.81-.3c.45-.16.83-.31.84-.32s0,0,0,0L15,1.78l-.35-.13-.42.15-.41.14-.44-.14-.86-.29-.41-.14-.85.27-.84.28-.33-.12c-.18-.06-.33-.12-.32-.14L11.88,1l2-.68.78.27.36-.11.36-.12.73.24-.37.12a1,1,0,0,0-.34.15l.43.15.4.13.4-.13.41-.13.4.13.41.14a1.83,1.83,0,0,1-.33.13l-.32.14a2.24,2.24,0,0,0,.34.14,1.22,1.22,0,0,1,.35.14,1.44,1.44,0,0,1-.35.15,1.09,1.09,0,0,0-.34.14,1.76,1.76,0,0,0,.34.13,1.1,1.1,0,0,1,.35.15.22.22,0,0,1-.12.07,3.94,3.94,0,0,0-.67.28c-.05,0-.33.13-.63.23l-1.07.37c-.83.3-.79.3-1.24.13l-.39-.15-.41.15A2.72,2.72,0,0,0,13,3.5a1.74,1.74,0,0,0,.82.29,3.37,3.37,0,0,0,.49-.15l.35-.14.22.09.41.16c.11,0,.19.07.18.08l-.85.32-.84.34a2,2,0,0,0,.41.18c.22.09.39.17.37.19L14.11,5l-.39.15L13.25,5l-.46-.18L12.32,5a1.22,1.22,0,0,0-.43.2s1.27.54,1.66.69c0,0,.09,0,.08,0a5.28,5.28,0,0,1-1,.35Zm3.93-4.74A2.55,2.55,0,0,0,17,1.39a1.21,1.21,0,0,0-.37-.15l-.37-.12-.33.12-.39.14s.15.11.68.28l.39-.12Zm-2.47-.31.36-.13S14.37,1,14.18,1L13.84.85,13.5,1a1,1,0,0,0-.32.14,4.45,4.45,0,0,0,.62.24l.34-.11ZM6.54,6.11l-.38-.18a5.09,5.09,0,0,1,.48-.18,2.93,2.93,0,0,0,.48-.2,1.5,1.5,0,0,0-.36-.19c-.21-.08-.36-.16-.34-.18A2.88,2.88,0,0,1,6.84,5c.21-.07.4-.15.42-.16s.08,0,.14,0L7.77,5a1.53,1.53,0,0,1,.29.14,1.49,1.49,0,0,1-.41.19,2.37,2.37,0,0,0-.45.18,1.45,1.45,0,0,0,.37.18A2.84,2.84,0,0,1,8,5.91a3.87,3.87,0,0,1-1,.36,2.24,2.24,0,0,1-.44-.16Zm9-.19a3.11,3.11,0,0,0-.46-.19,1.75,1.75,0,0,1-.39-.19s.43-.17.91-.36l.87-.32L16.9,5a2.7,2.7,0,0,1,.42.17,1.54,1.54,0,0,1-.4.18c-.21.09-.41.17-.43.19a3.16,3.16,0,0,1-.42.18,3.89,3.89,0,0,0-.43.19.06.06,0,0,1-.08,0Zm5.21-.2-.48-.18a1.91,1.91,0,0,1,.37-.18A1.93,1.93,0,0,0,21,5.2L20.6,5a2.57,2.57,0,0,1-.49-.2,3.06,3.06,0,0,0-.45-.19,2,2,0,0,1-.4-.16l.3-.14.38-.16c.07-.05.14,0,.56.11l.48.17.4-.16c.31-.12.38-.16.32-.19L21.27,4l-.37-.13.2-.09.37-.14a.77.77,0,0,0,.22-.1,2.32,2.32,0,0,1,.38-.18l.34-.14A2.27,2.27,0,0,0,22,3l-.43-.14L21.19,3a2,2,0,0,1-.43.14c-.08,0-1.67-.54-1.78-.61s-.05,0,0,0a3.21,3.21,0,0,0,.39-.13l.34-.14.46.16.46.16L21,2.41l.39-.15.88.29c.49.16.9.31.92.32s-.13.09-.33.17l-.35.13,1,.32.36-.14.36-.15,1,.31c.64.21.95.32.9.34l-.77.34-.69.3-.5-.17-.5-.18-.79.33a5.41,5.41,0,0,0-.77.37,2.09,2.09,0,0,0,.44.19,3.61,3.61,0,0,1,.44.17,9.66,9.66,0,0,1-.94.38l-.44.18-.33.14ZM8.61,5.37c-.26-.11-.38-.17-.34-.19L8.74,5l.41-.15.4.16a1.14,1.14,0,0,1,.39.19,4.45,4.45,0,0,1-.89.34,2.65,2.65,0,0,1-.44-.17Zm9.32,0-.46-.19a2.64,2.64,0,0,1,.8-.33,9.18,9.18,0,0,1,1,.34,7.67,7.67,0,0,1-.86.34l-.46-.16ZM24.27,5l-.4-.15.18-.07.34-.15c.22-.1.24-.1.73.08l.42.15L25.22,5a1.48,1.48,0,0,1-.44.15A2.36,2.36,0,0,1,24.27,5Zm-7.38-.67L16,4c-.43-.16-.45-.17-.35-.21l.21-.08.17-.05a.24.24,0,0,0,.12,0s.3-.13.59-.23l.52-.2.42.14a1.68,1.68,0,0,1,.42.18l-.39.18-.4.15.4.15a2.21,2.21,0,0,1,.42.18.88.88,0,0,1-.36.18l-.4.15a3.69,3.69,0,0,1-.51-.17ZM3.48,4l-.33-.15.94-.31c.52-.18,1-.32,1-.32a3.42,3.42,0,0,1,.69.28s-1.9.65-1.95.65L3.48,4ZM18.6,3.66a1.58,1.58,0,0,1-.39-.18A2.2,2.2,0,0,1,19,3.21a2.55,2.55,0,0,1,.81.32,3.11,3.11,0,0,1-.76.27,2.89,2.89,0,0,1-.48-.14Z" transform="translate(0 -0.01)"/><path class="cls-9" d="M14,32l-.9-.41-.35-.17v-.61c0-.49,0-.61.05-.61a1.89,1.89,0,0,1,.36.14l1.42.63s0-.87,0-1.93V27.06l-.37-.17-1.4-.66s-.06-.15-.07-.65a1.64,1.64,0,0,1,0-.61l.38.16c.57.26.51.31.51-.42a3,3,0,0,1,0-.63,3.39,3.39,0,0,1,.43.18l.43.18a2.56,2.56,0,0,0,0-.63v-.64L14.21,23a2.64,2.64,0,0,0-.46-.19,2.51,2.51,0,0,0,0,.62V24l-.85-.39,0-.66,0-.66-.91-.41L11,21.49s0,.58,0,1.3v1.29l.45.21.46.21v1.31l.44.2.45.21v.63a5.2,5.2,0,0,1,0,.63l-.42-.18a3.14,3.14,0,0,0-.45-.18s0,.17,0,.63v.64l.45.22.46.22v1.28l-.52-.24-.87-.4L11,29.3a2.81,2.81,0,0,0,0,.61,3.79,3.79,0,0,1,0,.6l-.9-.39-.87-.4,0-.65,0-.64-.81-.37c-.45-.21-.91-.41-1-.45l-1-.45c-.42-.2-.78-.37-.82-.37s-.06.1-.06.61,0,.61-.07.59L5,27.79l-.38-.17V26.34l-.42-.19L3.7,26v-.64a3.07,3.07,0,0,0,0-.68,3.44,3.44,0,0,0-.46-.23l-.43-.19v.64a5.55,5.55,0,0,1,0,.65l-.42-.18a3.52,3.52,0,0,0-.45-.19,2.26,2.26,0,0,0,0,.61,2.61,2.61,0,0,1,0,.6l-.45-.2L.93,26V23.39l.21.1.45.2.23.11v-.63c0-.44,0-.63.05-.63l.44.19.42.18a5.2,5.2,0,0,0,0-.63,5.34,5.34,0,0,1,0-.63,6,6,0,0,1,.88.42,3.76,3.76,0,0,1,0,.66v.61l.26.11c.31.15,1.4.66,1.48.71s.07.15.07.68l0,.64.41.19c1,.46,1.34.6,1.37.6a3,3,0,0,0,0-.63l0-.63-.42-.2-.43-.19V23.31l.32.15.44.2.14.06,0-1.3v-1.3l-.87-.4c-.47-.22-.89-.4-.92-.4s0,.15,0,.61v.61l-.09,0s-.24-.1-.43-.2l-.35-.16,0-1.3-.9-.41L2.77,19v1.29c0,.71,0,1.29,0,1.29l-.36-.16c-.57-.26-.51-.31-.51.42a2.08,2.08,0,0,1,0,.63l-.43-.18A3.58,3.58,0,0,0,1,22.14a2.46,2.46,0,0,0,0,.61c0,.45,0,.6-.05.6a2.85,2.85,0,0,1-.43-.18L.06,23V20.4l.09,0,.41.18a2.27,2.27,0,0,0,.35.14,2.89,2.89,0,0,0,0-.62v-.63l.44.2.43.2V17.32l-.44-.21-.45-.2V13L.49,12.8,0,12.59V12a5.34,5.34,0,0,1,0-.63l.36.16c.57.26.51.31.51-.42v-.63l-.39-.18-.46-.21S0,9.89,0,9.38a1.8,1.8,0,0,1,0-.64l.45.19.42.18s0-.29,0-.64V7.82l.43.2.42.19V9.54l.46.21a5.8,5.8,0,0,0,.55.23s.26.11.47.2l.38.18V11a3.21,3.21,0,0,1,0,.65l-.51-.22a13.5,13.5,0,0,0-1.28-.55,5.06,5.06,0,0,0,0,1.26c0,.7,0,1.28,0,1.29l.89.42.87.4v1.28l-.49-.23-.88-.4-.41-.18a2.87,2.87,0,0,0,0,.65V16l.93.44v1.26l.42.2.47.2a2.45,2.45,0,0,0,0-.62v-.63l.43.19.42.2v1.3l.24.1.46.21.23.1V16.41l-.43-.2L4.6,16a4.18,4.18,0,0,1,0-.66V14.7l.43.19.43.2,0-1.26a7.63,7.63,0,0,0,0-1.29,6.06,6.06,0,0,0-.86-.4,9.84,9.84,0,0,0,0,1.26c0,1.14,0,1.26-.06,1.24l-.45-.2-.38-.17v-.65c0-1.13,0-1.9,0-1.91a2,2,0,0,1,.43.17l.43.18s0-.86,0-1.92,0-1.92,0-1.92L5,8.4a3.39,3.39,0,0,0,.43.18,2.68,2.68,0,0,0,0-.6V7.37l.44.2.43.2V8.4L6.4,9,6,8.82l-.45-.2s0,.59,0,1.3v1.3l.43.19.42.19V11c0-.75,0-.7.56-.41l.38.17v1.36l.19.09.44.2.72.31.45.21v.64l0,.65.85.38v-.62a5.09,5.09,0,0,1,0-.62l.46.19.44.2V12.42l.09,0a7.71,7.71,0,0,1,.92.44c.3.16,1.66.8,1.71.8a2.66,2.66,0,0,1,.42.17l.45.2.09,0,0-2.61.34-.16.71-.3.81-.36.82-.39.37-.19a2.1,2.1,0,0,0-.45-.21l-.5-.23s-1-.44-1.05-.44l-.52.22-.5.22-.51-.23a2.73,2.73,0,0,1-.51-.25,6.46,6.46,0,0,1,.95-.41A4,4,0,0,0,15,8.57l.56-.23.61-.24a5.74,5.74,0,0,1,.53-.22l.5-.21.4-.17.46.18.46.19s-.09,0-.22.1l-.58.26-.42.19-.57.24c-.11.05-.13.11,0,.14s.5.19,1,.41,1,.38,1,.38.33-.13.67-.28c1.6-.74,2.11-1,2.44-1.11l.75-.35.74-.34.68-.3c.27-.13.33-.16.26-.19l-.22-.09-.4-.14a.57.57,0,0,1-.25-.11.58.58,0,0,1,.17-.1L24,6.41a1.33,1.33,0,0,1,.27-.09l.5.15.44.16.91-.4,1.57-.71.81-.36L29,5l.33-.14s0,20.68,0,20.71-.4.2-.83.39c-1.1.5-2.38,1.07-2.82,1.28l-1.39.63-3.1,1.41-2.85,1.29-1.31.6-2.15,1-.21.09L14,32Zm-4-5v-.65l-.43-.2-.47-.2a3.21,3.21,0,0,0,0,.65v.65l.41.2c.23.1.44.2.47.2s.05-.15.05-.65Zm0-3.28V22.36L9.17,22a6.42,6.42,0,0,0-.93-.38s0,.6,0,1.3v1.27l.9.41a6.07,6.07,0,0,0,.92.38s0-.6,0-1.3Zm4.58-3.71V18l-.42-.19-.46-.21s0,.25,0,1.28c0,.71,0,1.3,0,1.3L13.26,20l-.46-.2a5.68,5.68,0,0,0,0,.64V21l.87.42c.48.22.89.41.92.41a10.24,10.24,0,0,0,.05-1.93Zm-4.57.5V19.8l.43.19.44.2,0-.92c0-.5,0-1.08,0-1.28s0-.36-.11-.41L9.44,16.9l-.29-.14v2.62l-.39-.17c-.61-.29-.55-.34-.54.4v.64l.85.39A9.26,9.26,0,0,0,10,21c.06,0,.07-.05.07-.62Zm2.71-1.35v-.63l-.41-.19-.44-.19a1.88,1.88,0,0,0,0,.63v.64l.39.19.45.19s0-.15,0-.64ZM8.25,16.92v-.55L7.35,16l-.93-.41a3.77,3.77,0,0,0,0,.65v.65l.46.21.45.2v1.3l.85.38,0-.73c0-.41,0-1,0-1.28Zm4.54-.43v-.63l-.28-.12-.44-.2-.17-.08v1.28l.39.19.45.19s0-.15,0-.63ZM6,23.08l-.43-.2V21.61l.17.08.45.2.27.12v.63c0,.35,0,.63,0,.63L6,23.08Zm7.28-10.9-.42-.2,0-1.29.27.12.46.2.18.07v.65a3.77,3.77,0,0,1,0,.65l-.46-.2ZM7.74,10.93l-.42-.2v-.61c0-.57,0-.61.08-.59l.44.2.37.17v.61a3,3,0,0,1,0,.62l-.44-.2ZM5.37,7.26A2.05,2.05,0,0,1,5,7.07l.47-.18.45-.17.39.17a1,1,0,0,1,.36.2s-.9.36-.94.36l-.38-.19Zm15.73,0-.46-.19s.1-.09.35-.2l.41-.18.47.17a2.61,2.61,0,0,1,.47.2,8.6,8.6,0,0,1-.81.36l-.43-.16ZM18,6.89c-.26-.1-.46-.19-.44-.21s1.72-.74,1.77-.74a4.48,4.48,0,0,1,.53.18l.48.17-.22.1-.71.29L18.73,7l-.22.1ZM2.82,6.1C2.6,6,2.47,5.91,2.5,5.89a7.07,7.07,0,0,1,1-.3,3.08,3.08,0,0,1,.75.32,9.2,9.2,0,0,1-1,.36L2.82,6.1Zm3.76,0L6.2,5.93s.9-.34,1-.34l.3.1.39.17L8,5.92l-.48.18A4.14,4.14,0,0,1,7,6.27a3.25,3.25,0,0,1-.4-.16Zm4.89-.34L11,5.59c-.12,0-.12,0,.3-.21a2.43,2.43,0,0,1,.5-.15,3.85,3.85,0,0,1,.86.34,3.4,3.4,0,0,1-.83.34,2.84,2.84,0,0,1-.39-.14Zm3.66-.06c-.35-.14-.37-.16-.28-.2l.41-.16.31-.12.32.12.42.16c.09,0,.07.06-.29.2a2.85,2.85,0,0,1-.44.16,3.21,3.21,0,0,1-.45-.16Zm2.8-.34c-.52-.2-.52-.17,0-.39l.33-.13.47.17.47.18L19,5.29l-.42.17-.19.08Zm3.16-.2c-.49-.18-.9-.34-.9-.35A3.8,3.8,0,0,1,21,4.5s.46-.17.93-.37l1.19-.49.32-.13.46.15.55.17a7.07,7.07,0,0,1,.89.3,2.59,2.59,0,0,1-.74.32,4,4,0,0,1-.54-.16l-.47-.16-.81.33a7.91,7.91,0,0,0-.81.37s0,0,.54.24.43.1-.1.33a.84.84,0,0,1-.32.1c-.05,0-.5-.15-1-.33Zm-8.66-.5a2.36,2.36,0,0,1-.37-.17,2.46,2.46,0,0,1,.4-.17l.4-.15.39.14a2.6,2.6,0,0,1,.39.17,7.26,7.26,0,0,1-.79.31,1.9,1.9,0,0,1-.42-.13ZM8.92,4l-.36-.16c-.06,0,0-.05.22-.13l1.37-.47,1.06-.37.34.13c.35.12.41.16.28.2l-.76.27c-.12.06-1.8.65-1.84.65L8.92,4ZM6.26,3.63l-.32-.14.43-.14.43-.14.25.1.36.14c.09,0,.06.06-.31.18a2,2,0,0,1-.46.13,2.07,2.07,0,0,1-.38-.13Zm6.28-.27C12,3.14,12,3.17,12.4,3a2.07,2.07,0,0,1,.47-.14,3.36,3.36,0,0,0,.51-.15l.41-.14.37.13.36.14s-1.62.63-1.65.62l-.33-.12ZM6.45,3l-.36-.15.44-.14L7,2.59l.34.13a1.3,1.3,0,0,1,.32.14A2.8,2.8,0,0,1,7.22,3l-.41.14Zm13.42-.16c-.41-.14-.76-.28-.78-.29s.12-.09.31-.16l.34-.13.4.15a.93.93,0,0,0,.93,0,1.17,1.17,0,0,1,.34-.11,3.88,3.88,0,0,1,.5.14l.4.14L22,2.71a2.35,2.35,0,0,1-.39.13,2.64,2.64,0,0,0-.43.14,2.19,2.19,0,0,1-.46.14l-.84-.27ZM9.07,2.71l-.32-.13a2.09,2.09,0,0,1,.4-.16l.42-.14.34.14c.39.14.41.11-.15.31a2.09,2.09,0,0,1-.34.1,2.87,2.87,0,0,1-.35-.12Zm6.8,0a1.13,1.13,0,0,1-.31-.15l.37-.15a1.43,1.43,0,0,0,.37-.17A1,1,0,0,0,16,2.08,1.45,1.45,0,0,1,15.6,2,1.56,1.56,0,0,1,16,1.81l.34-.12.37.11a2,2,0,0,1,.39.15,1.51,1.51,0,0,1-.33.13,1.27,1.27,0,0,0-.34.15,1.35,1.35,0,0,0,.39.16,1,1,0,0,1,.35.16,3.18,3.18,0,0,1-.82.28,3.1,3.1,0,0,1-.44-.12ZM14.23,1.53a1.1,1.1,0,0,1-.35-.15s.35-.14.78-.28l.78-.24.33.1a1.76,1.76,0,0,1,.34.13,1,1,0,0,1-.3.14l-.67.25-.47.15a1.2,1.2,0,0,1-.44-.1Zm2.47-.3a1.63,1.63,0,0,1-.31-.13A2.24,2.24,0,0,1,16.73,1l.33-.11.35.11a1.08,1.08,0,0,1,.35.14,2.56,2.56,0,0,1-.68.24l-.38-.11ZM13.38.7c-.18-.07-.31-.13-.29-.14l.42-.15.38-.12.34.12.37.14a4.69,4.69,0,0,1-.82.26,2.08,2.08,0,0,1-.4-.11Z" transform="translate(0 -0.01)"/></g><path class="cls-10" d="M14,32l-.9-.41-.35-.17v-.61c0-.49,0-.61.05-.61a1.89,1.89,0,0,1,.36.14l1.42.63s0-.87,0-1.93V27.06l-.37-.17-1.4-.66s-.06-.15-.07-.65a1.64,1.64,0,0,1,0-.61l.38.16c.57.26.51.31.51-.42a3,3,0,0,1,0-.63,3.39,3.39,0,0,1,.43.18l.43.18a2.56,2.56,0,0,0,0-.63v-.64L14.21,23a2.64,2.64,0,0,0-.46-.19,2.51,2.51,0,0,0,0,.62V24l-.85-.39,0-.66,0-.66-.91-.41L11,21.49s0,.58,0,1.3v1.29l.45.21.46.21v1.31l.44.2.45.21v.63a5.2,5.2,0,0,1,0,.63l-.42-.18a3.14,3.14,0,0,0-.45-.18s0,.17,0,.63v.64l.45.22.46.22v1.28l-.52-.24-.87-.4L11,29.3a2.81,2.81,0,0,0,0,.61,3.79,3.79,0,0,1,0,.6l-.9-.39-.87-.4,0-.65,0-.64-.81-.37c-.45-.21-.91-.41-1-.45l-1-.45c-.42-.2-.78-.37-.82-.37s-.06.1-.06.61,0,.61-.07.59L5,27.79l-.38-.17V26.34l-.42-.19L3.7,26v-.64a3.07,3.07,0,0,0,0-.68,3.44,3.44,0,0,0-.46-.23l-.43-.19v.64a5.55,5.55,0,0,1,0,.65l-.42-.18a3.52,3.52,0,0,0-.45-.19,2.26,2.26,0,0,0,0,.61,2.61,2.61,0,0,1,0,.6l-.45-.2L.93,26V23.39l.21.1.45.2.23.11v-.63c0-.44,0-.63.05-.63l.44.19.42.18a5.2,5.2,0,0,0,0-.63,5.34,5.34,0,0,1,0-.63,6,6,0,0,1,.88.42,3.76,3.76,0,0,1,0,.66v.61l.26.11c.31.15,1.4.66,1.48.71s.07.15.07.68l0,.64.41.19c1,.46,1.34.6,1.37.6a3,3,0,0,0,0-.63l0-.63-.42-.2-.43-.19V23.31l.32.15.44.2.14.06,0-1.3v-1.3l-.87-.4c-.47-.22-.89-.4-.92-.4s0,.15,0,.61v.61l-.09,0s-.24-.1-.43-.2l-.35-.16,0-1.3-.9-.41L2.77,19v1.29c0,.71,0,1.29,0,1.29l-.36-.16c-.57-.26-.51-.31-.51.42a2.08,2.08,0,0,1,0,.63l-.43-.18A3.58,3.58,0,0,0,1,22.14a2.46,2.46,0,0,0,0,.61c0,.45,0,.6-.05.6a2.85,2.85,0,0,1-.43-.18L.06,23V20.4l.09,0,.41.18a2.27,2.27,0,0,0,.35.14,2.89,2.89,0,0,0,0-.62v-.63l.44.2.43.2V17.32l-.44-.21-.45-.2V13L.49,12.8,0,12.59V12a5.34,5.34,0,0,1,0-.63l.36.16c.57.26.51.31.51-.42v-.63l-.39-.18-.46-.21S0,9.89,0,9.38a1.8,1.8,0,0,1,0-.64l.45.19.42.18a5.2,5.2,0,0,0,0-.63,3.08,3.08,0,0,1,0-.63L1.4,8l.42.19V9.54l.5.23.88.39a4.32,4.32,0,0,1,.43.21,4.67,4.67,0,0,1,0,1.29l-.51-.22a13.5,13.5,0,0,0-1.28-.55,5.06,5.06,0,0,0,0,1.26c0,.7,0,1.28,0,1.29l.89.42.87.4v1.28l-.49-.23-.88-.4-.41-.18a2.87,2.87,0,0,0,0,.65V16l.47.22.46.22v1.26l.42.2.47.2a2.45,2.45,0,0,0,0-.62v-.63l.43.19.42.2v1.3l.24.1.46.21.23.1V16.41l-.43-.2L4.6,16a4.18,4.18,0,0,1,0-.66V14.7l.43.19.43.2,0-1.26a7.69,7.69,0,0,0,0-1.29,6.06,6.06,0,0,0-.86-.4,9.84,9.84,0,0,0,0,1.26c0,1.14,0,1.26-.06,1.24l-.45-.2-.38-.17v-.65c0-1.1,0-1.9,0-1.91a2.61,2.61,0,0,1,.41.17l.43.18s0-.86,0-1.92,0-1.92,0-1.92l.45.2.44.19v2.6l.43.21.45.2s0-.28,0-.63a2.42,2.42,0,0,1,0-.63l.47.19.42.19v2.6l.42.19a4.74,4.74,0,0,0,.44.19,2.81,2.81,0,0,0,0-.61c0-.41,0-.6,0-.6a3.36,3.36,0,0,1,.46.19l.43.19v1.28l.42.2.46.2a1.78,1.78,0,0,0,.06-.62v-.62l.42.19.43.19v-.64c0-.5,0-.65.06-.63l.46.21.42.19v1.29l.29.14.62.28a6.77,6.77,0,0,0,.87.39,2.94,2.94,0,0,0,.05-.63v-.62l.44.2.45.2s0-.59,0-1.3v-1.3l.4-.19c1.18-.53,2.38-1.08,2.69-1.24a10.64,10.64,0,0,1,1-.45c.1,0,.61-.26,1.13-.51l1.61-.73c.35-.15.89-.39,1.19-.54,2.54-1.19,6.35-2.92,6.51-3l.09,0V15.17c0,6.52,0,10.34-.06,10.36s-.39.2-.82.39L25.59,27.2l-1.39.63-3.1,1.41-2.85,1.29-1.32.6-2.14,1-.21.09Zm-4-5v-.65l-.43-.2-.47-.2a3.21,3.21,0,0,0,0,.65v.65l.41.2c.23.1.44.2.47.2s.05-.15.05-.65Zm0-3.28V22.36L9.17,22a6.42,6.42,0,0,0-.93-.38s0,.6,0,1.3v1.27l.9.41a6.07,6.07,0,0,0,.92.38s0-.6,0-1.3Zm4.58-3.71V18l-.42-.19-.46-.21s0,.25,0,1.28c0,.71,0,1.3,0,1.3L13.26,20l-.46-.2a5.68,5.68,0,0,0,0,.64V21l.87.42c.48.22.89.41.92.41a10.24,10.24,0,0,0,.05-1.93Zm-4.57.5V19.8l.43.19.44.2,0-.92c0-.5,0-1.08,0-1.28s0-.36-.11-.41L9.44,16.9l-.29-.14v2.62l-.39-.17c-.61-.29-.55-.34-.54.4v.64l.85.39A9.26,9.26,0,0,0,10,21c.06,0,.07-.05.07-.62Zm2.71-1.35v-.63l-.41-.19-.44-.19a1.88,1.88,0,0,0,0,.63v.64l.39.19.45.19s0-.15,0-.64ZM8.25,16.92v-.55L7.35,16l-.93-.41a3.77,3.77,0,0,0,0,.65v.65l.46.21.45.2v1.3l.85.38,0-.73c0-.41,0-1,0-1.28Zm4.54-.43v-.63l-.28-.12-.44-.2-.17-.08v1.28l.39.19.45.19s0-.15,0-.63ZM6,23.08l-.43-.2V21.61l.17.08.45.2.27.12v.63c0,.35,0,.63,0,.63L6,23.08ZM19,6.48c-.4-.16-.45-.19-.36-.22l.28-.12c.42-.18.46-.19.69-.1l.32.11.24.1.14.06-.12.05-.48.2-.23.1L19,6.48Z" transform="translate(0 -0.01)"/><path class="cls-11" d="M14,32l-.9-.41-.35-.17v-.61c0-.49,0-.61.05-.61a1.89,1.89,0,0,1,.36.14l1.42.63s0-.87,0-1.93V27.06l-.37-.17-1.4-.66s-.06-.15-.07-.65a1.64,1.64,0,0,1,0-.61l.38.16c.57.26.51.31.51-.42a3,3,0,0,1,0-.63,3.39,3.39,0,0,1,.43.18l.43.18a2.56,2.56,0,0,0,0-.63v-.64L14.21,23a2.64,2.64,0,0,0-.46-.19,2.51,2.51,0,0,0,0,.62V24l-.43-.19-.42-.2,0-.66,0-.66-.91-.41L11,21.49s0,.58,0,1.3v1.29l.45.21.46.21v1.31l.44.2.45.21v.63a5.2,5.2,0,0,1,0,.63l-.42-.18a3.14,3.14,0,0,0-.45-.18s0,.17,0,.63v.64l.45.22.46.22v1.28l-.52-.24-.87-.4L11,29.3a2.81,2.81,0,0,0,0,.61,3.79,3.79,0,0,1,0,.6l-.9-.39-.87-.4,0-.65,0-.64-.81-.37c-.45-.21-.91-.41-1-.45l-1-.45c-.42-.2-.78-.37-.82-.37s-.06.1-.06.61,0,.61-.07.59L5,27.79l-.38-.17V26.34L3.7,26v-.64a3.07,3.07,0,0,0,0-.68,3.44,3.44,0,0,0-.46-.23l-.43-.19v.64a5.55,5.55,0,0,1,0,.65l-.42-.18a3.52,3.52,0,0,0-.45-.19,2.26,2.26,0,0,0,0,.61,2.61,2.61,0,0,1,0,.6l-.45-.2L.93,26V23.39l.21.1.45.2.23.11v-.63c0-.44,0-.63.05-.63a3.09,3.09,0,0,1,.44.19l.42.18a5.34,5.34,0,0,0,0-.63,5.2,5.2,0,0,1,0-.63,6,6,0,0,1,.88.42,3.76,3.76,0,0,1,0,.66v.61l.26.11c.31.15,1.4.66,1.48.71s.07.15.07.68l0,.64.41.19c1,.46,1.34.6,1.37.6a3,3,0,0,0,0-.63l0-.63-.42-.2-.43-.19,0-1.3.22.09,1.8.83a12.64,12.64,0,0,0,1.61.68s0-.61,0-1.3V22.36L9.17,22a7.18,7.18,0,0,0-.92-.38,2.84,2.84,0,0,0,0,.63l0,.62-.42-.2-.43-.2,0-.65,0-.65-.87-.4c-.47-.22-.89-.4-.92-.4s0,.15,0,.61v.61l-.09,0-.43-.2-.35-.16,0-1.3-.9-.41L2.77,19v1.29c0,.71,0,1.29,0,1.29l-.36-.16c-.57-.26-.51-.31-.51.42a2.08,2.08,0,0,1,0,.63l-.43-.18A3.58,3.58,0,0,0,1,22.14a2.46,2.46,0,0,0,0,.61c0,.45,0,.6-.05.6a2.85,2.85,0,0,1-.43-.18L.06,23V20.4l.09,0,.41.18a2.27,2.27,0,0,0,.35.14,2.89,2.89,0,0,0,0-.62v-.63l.44.2.43.2V17.32l-.44-.21L.93,16.9V13L.49,12.8,0,12.59V12a5.34,5.34,0,0,1,0-.63l.36.16c.57.26.51.31.51-.42v-.63l-.39-.18-.46-.21S0,9.89,0,9.38a1.8,1.8,0,0,1,0-.64l.45.19.42.18a5.2,5.2,0,0,0,0-.63,3.08,3.08,0,0,1,0-.63L1.4,8l.42.19v.64a5.44,5.44,0,0,1,0,.64l-.36-.16C.87,9.09.93,9,.93,9.79v.64l.44.2a2.36,2.36,0,0,0,.47.19,5.88,5.88,0,0,0,0-.64V9.56l.52.23.86.39a3.56,3.56,0,0,1,.39.19,4.67,4.67,0,0,1,0,1.29l-.51-.22a13.5,13.5,0,0,0-1.28-.55,5.06,5.06,0,0,0,0,1.26c0,.7,0,1.28,0,1.29l.89.42.87.4v1.28l-.49-.23-.88-.4-.41-.18a2.8,2.8,0,0,0,0,.65V16l.93.44v1.26l.42.2.47.2a2.45,2.45,0,0,0,0-.62v-.63l.85.39,0,1.3.24.1.46.21.23.1V16.41l-.43-.2L4.6,16a4.18,4.18,0,0,1,0-.66V14.7l.86.39,0-1.26a7.63,7.63,0,0,0,0-1.29,6.06,6.06,0,0,0-.86-.4,9.84,9.84,0,0,0,0,1.26c0,1.14,0,1.26-.06,1.24l-.45-.2-.38-.17v-.65c0-1.1,0-1.9,0-1.91a2.61,2.61,0,0,1,.41.17l.43.18s0-.86,0-1.92,0-1.92,0-1.92l.45.2.44.19v2.6l.43.21.45.2s0-.29,0-.63a2.42,2.42,0,0,1,0-.63l.47.19.42.19v2.6l.42.19a4.74,4.74,0,0,0,.44.19,2.81,2.81,0,0,0,0-.61c0-.41,0-.6,0-.6a3.36,3.36,0,0,1,.46.19l.43.18v1.29l.42.2.46.2a1.78,1.78,0,0,0,.06-.62v-.62l.42.19.43.19v-.64c0-.5,0-.65.06-.63l.46.21.42.19v1.29l.29.13.62.29a7.6,7.6,0,0,0,.87.39,2.62,2.62,0,0,0,0-.63v-.63l.17.08.46.21.3.14V11.49l.4-.19c1.18-.53,2.38-1.08,2.69-1.24a10.64,10.64,0,0,1,1-.45c.1,0,.61-.26,1.13-.51l1.61-.73c.35-.15.89-.39,1.19-.54,2.49-1.16,6.35-2.92,6.5-3l.09,0v6.47c0,3.56,0,8.21,0,10.34v3.87l-2.72,1.23-4.1,1.87-1.38.63v-.61c0-.44,0-.6-.06-.6a3.05,3.05,0,0,0-.46.18l-.42.19v1.27l-1.28.58-2.52,1.15-1.48.67-.24.11Zm-4-5v-.65l-.43-.2-.47-.2a3.21,3.21,0,0,0,0,.65v.65l.41.2c.23.1.44.2.47.2s.05-.15.05-.65Zm4.57-7V18l-.42-.19-.46-.21s0,.25,0,1.28c0,.71,0,1.3,0,1.3L13.26,20l-.46-.2a5.68,5.68,0,0,0,0,.64V21l.87.42c.48.22.89.41.92.41a10.24,10.24,0,0,0,.05-1.93Zm-4.57.5V19.8l.43.19.44.2,0-.92c0-.5,0-1.08,0-1.28s0-.36-.11-.41L9.44,16.9l-.29-.14v2.62l-.39-.17c-.61-.29-.55-.34-.54.4v.64l.85.39A9.26,9.26,0,0,0,10,21c.06,0,.07-.05.07-.62Zm18-.83.28-.12v-.63c0-.57,0-.63-.07-.61l-.44.19-.38.17v1.28l.17-.08.44-.2Zm-15.3-.52v-.63l-.41-.19-.44-.19a1.88,1.88,0,0,0,0,.63v.64l.39.19.45.19s0-.15,0-.64ZM8.25,16.92v-.55L7.35,16l-.93-.41a3.77,3.77,0,0,0,0,.65v.65l.46.21.45.2v1.3l.85.38,0-.73c0-.41,0-1,0-1.28Zm10.52,1.75.41-.19V17.2l-.23.11-.45.2-.21.1v.62a3,3,0,0,0,0,.63,3.52,3.52,0,0,0,.45-.19Zm-6-2.18v-.63l-.28-.12-.44-.2-.17-.08v1.28l.39.19.45.19s0-.15,0-.63ZM11,15.66V15l-.43-.2-.47-.2a3.15,3.15,0,0,0,0,.64v.64l.43.21.47.21a4.41,4.41,0,0,0,0-.65ZM6,23.08l-.43-.2V21.61l.17.08.45.2.27.12v.63c0,.35,0,.63,0,.63L6,23.08ZM19,6.48c-.4-.16-.45-.19-.36-.22l.28-.12c.42-.18.46-.19.69-.1l.32.11.24.1.14.06-.12.05-.48.2-.23.1L19,6.48Z" transform="translate(0 -0.01)"/><path class="cls-12" d="M14.15,32l-.43-.2v-.63a2.74,2.74,0,0,1,0-.61l.45.2.41.18v.64c0,.35,0,.63,0,.63L14.15,32Zm.5-5V21.83l.41-.18.42-.18V20.18c0-.7,0-1.28,0-1.28l-.41.18-.41.19s0-1.75,0-3.89V11.49l.4-.19c1.18-.53,2.38-1.08,2.69-1.24a10.64,10.64,0,0,1,1-.45c.1,0,.61-.26,1.13-.51l1.61-.73c.35-.15.89-.39,1.19-.54,2.53-1.18,6.35-2.92,6.51-3l.09,0V6.14c0,.71,0,2.17,0,3.24l0,1.95-.4.18-.41.18v.63a2.68,2.68,0,0,0,0,.63l.42-.18.38-.17v3.89c0,2.13,0,3.9,0,3.91l-.89.41-.86.38v.63c0,.36,0,.64,0,.64l.38-.16c.19-.1.59-.28.87-.41l.52-.23v3.87l-.92.41-1.86.84-2,.89-2.24,1-1.22.56v-.6c0-.44,0-.6-.06-.6a3.05,3.05,0,0,0-.46.18l-.42.19v1.27l-.35.16-1.33.59-1,.47s-.05-.12-.05-.6a2.34,2.34,0,0,0,0-.6l-.44.2-.41.18v.61c0,.44,0,.62,0,.65l-.72.34-.86.39-.19.1Zm3.2,2.44.38-.17v-.63a4.29,4.29,0,0,0,0-.63,8.34,8.34,0,0,0-.82.37s-.05.21-.05.64,0,.6.05.6a3.24,3.24,0,0,0,.44-.18Zm2.88-3.9.27-.12v-.63a2.73,2.73,0,0,0,0-.62l-.45.19-.41.18v1.28l.17-.08.45-.2Zm3.54-.33.41-.18V23.76l-.43.2-.44.2v.63a2.73,2.73,0,0,0,0,.62l.44-.2Zm-4.54-.5.38-.18V23.9c0-.35,0-.63,0-.63l-.46.2-.44.2v.63c0,.74-.08.69.54.41Zm-1.41-.66.86-.39V22.39l-.58.26-.86.39-.33.16a3.68,3.68,0,0,0,0,1.24s.43-.17.91-.39ZM27,24l.4-.18V22.51l-.4.18-.44.2a4.46,4.46,0,0,0,0,1.26L27,24Zm-6.41-1,.42-.2v-.61a2.89,2.89,0,0,0,0-.61l-.47.2-.43.2v.61a2.32,2.32,0,0,0,0,.61l.47-.2Zm3.2-1.44.86-.4V19.88l-.51.23-.91.42-.4.19v.61c0,.46,0,.61.05.61s.44-.18.91-.39Zm-6.1-1.11c.63-.27.57-.19.57-.89a2.81,2.81,0,0,0,0-.61l-.91.4-.88.39V21l.43-.2.82-.36Zm10.37-.85.28-.12v-.63c0-.57,0-.63-.07-.61l-.44.19-.38.17v1.28l.17-.08.44-.2ZM26.58,19l.86-.4V17.33l-.36.16-.9.41-.54.25,0,.62c0,.48,0,.62,0,.62s.44-.18.92-.39Zm-7.81-.33.41-.19V17.2l-.23.11-.45.2-.21.1v.62a3,3,0,0,0,0,.63,3.52,3.52,0,0,0,.45-.19Zm2.8-1.29.89-.4.38-.17v-.64a2.51,2.51,0,0,0,0-.62l-.91.41-.88.4V17a5.09,5.09,0,0,0,0,.62l.51-.23Zm-3.67-.9.35-.17V15.06l-.09,0-.45.2-.35.17v1.25l.09,0,.45-.2ZM24.73,16l.86-.4,0-.63v-.63l-.91.4-.89.4v.63a3,3,0,0,0,0,.63l.9-.4ZM10.49,29.06l-.41-.18V26.27l.87.4V28c0,.72,0,1.3,0,1.3l-.45-.2ZM6.89,27.4l-.46-.23a3.52,3.52,0,0,1,0-.65v-.61l.46.21.45.2V27c0,.35,0,.64,0,.64l-.42-.2Zm1.74-.49-.42-.19v-.63a1.7,1.7,0,0,1,0-.63,3.36,3.36,0,0,1,.46.19l.43.19v.64c0,.48,0,.64-.06.63a4.28,4.28,0,0,1-.46-.2Zm5.53-.08-.42-.2V26a2.46,2.46,0,0,1,0-.62,3.72,3.72,0,0,1,.45.18l.41.19v.64c0,.36,0,.64,0,.64l-.44-.2ZM5,26.55l-.42-.2V25.07l-.45-.22-.46-.22V24a2.27,2.27,0,0,1,0-.63l.46.21.43.2v1.28l.34.15.45.22.12.06v.63c0,.5,0,.64,0,.64a4.28,4.28,0,0,1-.46-.2Zm6.39-1L11,25.4v-.64a3.15,3.15,0,0,1,0-.64l.45.2.43.19v.64c0,.49,0,.63,0,.63a3.38,3.38,0,0,1-.47-.2Zm-9.1-.29-.46-.21v-.62c0-.47,0-.62.05-.62a2.82,2.82,0,0,1,.47.19l.41.19v.64c0,.35,0,.64,0,.63l-.46-.2Zm5.49-2.67-.43-.2V21.13l.18.07.44.2.27.13v.65c0,.35,0,.64,0,.64l-.43-.2Zm5.48-.07a2.46,2.46,0,0,1-.43-.23,5,5,0,0,1,0-1.23,2.82,2.82,0,0,1,.47.19l.42.19v.64a4.13,4.13,0,0,1,0,.63l-.44-.19ZM1.33,22.27l-.4-.19v-.64a5.44,5.44,0,0,1,0-.64l.44.2.43.2v.63c0,.48,0,.63-.05.63a3.36,3.36,0,0,1-.44-.19Zm4.54-1.82L5,20.06l-.39-.17v-.64a3,3,0,0,1,0-.63s.27.1,1.32.57c.2.09.39.17.41.19s0-.13,0-.62a2.7,2.7,0,0,1,0-.63,4.28,4.28,0,0,1,.46.2l.43.2v1.3l-.09,0-.45-.2-.37-.16s0,.28,0,.62v.62Zm2.8-1.31L8.26,19v-.63a3,3,0,0,1,0-.63,4.74,4.74,0,0,1,.44.19l.42.19v.64a2.62,2.62,0,0,1,0,.63l-.44-.2Zm-6.39-.31-.42-.19V17.33l.45.2.44.21v.64a3.15,3.15,0,0,1,0,.64l-.44-.19Zm8.21-1.45-.41-.19v-.64c0-.42,0-.64,0-.63l.45.21.42.19v.62a3.81,3.81,0,0,1,0,.62l-.45-.18Zm2.75,0-.41-.19V15.85l-.91-.41V14.15l-.44-.2L11,13.76a3,3,0,0,0,0,.63V15l-.4-.18c-.6-.28-.53-.33-.53.4a4.33,4.33,0,0,1,0,.64l-.88-.39-.86-.38s0,.27,0,.6,0,.61,0,.61L7.45,16l-1.12-.5-.61-.26-.22-.09V13.81l.88.4.91.4a3,3,0,0,0,0-.63l0-.63L6.47,13l-1.15-.54c-.33-.16-.7-.33-.73-.33a5.2,5.2,0,0,0,0,.63,2.93,2.93,0,0,1,0,.63,3.24,3.24,0,0,1-.44-.18L3.7,13v-.65c0-.36,0-.65,0-.65l.41.18.43.18s0-.85,0-1.9,0-1.9,0-1.91a1.9,1.9,0,0,1,.46.17l.42.19v2.6l.43.21.45.2s0-.29,0-.63a2.42,2.42,0,0,1,0-.63l.47.19.42.19v2.6l.42.19a4.74,4.74,0,0,0,.44.19,2.81,2.81,0,0,0,0-.61c0-.4,0-.6,0-.6a5.24,5.24,0,0,1,.72.32l.14.07,0,.64v.63l.42.2.46.2s.05-.21.05-.61a4.76,4.76,0,0,1,0-.6l.43.18a2.77,2.77,0,0,0,.44.18s0-.2,0-.65,0-.64,0-.63l.45.21.42.19v1.29l.29.13.62.29a9.22,9.22,0,0,0,.87.39,3,3,0,0,0,.05-.63v-.62l.85.38v.66a4.57,4.57,0,0,1,0,.65l-.4-.18L13.76,15a8,8,0,0,0,0,1.27c0,.7,0,1.27,0,1.27l-.45-.2ZM1.37,14.52l-.44-.2V13c0-1.17,0-1.29.07-1.27l.44.2.38.17v1.31c0,.71,0,1.3,0,1.3l-.44-.21Zm2.22-2.88s-.4-.2-.86-.41l-.85-.38v-.63a4.37,4.37,0,0,1,0-.63l.42.18.65.29.49.21.22.11V11c0,.57,0,.69-.08.62ZM.46,10.2,0,10V8.75l.17.07L.66,9l.27.13v.62a3,3,0,0,1,0,.63l-.44-.2Zm.89-.88L.93,9.13V8.49a3.15,3.15,0,0,1,0-.64L1.4,8l.42.19v.64a3.15,3.15,0,0,1,0,.64l-.44-.19ZM19,6.48c-.4-.16-.45-.19-.36-.22l.28-.12c.42-.18.46-.19.69-.1l.32.11.24.1.14.06-.12.05-.48.2-.23.1L19,6.48Z" transform="translate(0 -0.01)"/><path class="cls-13" d="M14.15,32l-.43-.2v-.63a2.74,2.74,0,0,1,0-.61l.45.2.41.18v.64c0,.35,0,.63,0,.63L14.15,32Zm.5-5V21.83l.41-.18.42-.18V20.18c0-.7,0-1.28,0-1.28l-.41.18-.41.19s0-.88,0-2V15.36l.89-.4V13.64l.43-.2a2,2,0,0,1,.46-.18,3,3,0,0,1,0,.65,3,3,0,0,0,0,.62l.46-.21.42-.21,0-1.29.37-.16.88-.4.51-.22v-.66c0-.65,0-.66-.08-.63s-.4.17-.78.35l-.83.38-.13,0V10.28l.88-.41.93-.4a2.7,2.7,0,0,1,0,.59c0,.53,0,.59.07.57l.44-.19.38-.17V9l.47-.22.46-.21v.6c0,.33,0,.61,0,.61l.41-.19A2.77,2.77,0,0,1,22,9.43a3.14,3.14,0,0,0,.45-.18l.43-.18a3.07,3.07,0,0,1,0,.64v.63l-.44.2-.45.2V12l.22-.09.88-.41c.37-.17.69-.31.72-.31s0,.18,0,.61a5,5,0,0,0,0,.61l.42-.18.39-.18,0-.64v-.64l.45-.21.45-.21,0-1.3V7.77l-.32.15-.55.24c-.14.05-.41.16-.6.25l-.36.17V7.35l.34-.15c.95-.43,2.61-1.19,3.55-1.64a6.78,6.78,0,0,1,.63-.28l.1,0v.61a5,5,0,0,0,0,.61l.41-.18.4-.18s0,2.62,0,3.9v1.3l-.42.19-.41.18v.63a2.68,2.68,0,0,0,0,.63l.42-.18.38-.17v3.89c0,2.13,0,3.9,0,3.91l-.89.41-.86.38v.63c0,.35,0,.64,0,.64a3.59,3.59,0,0,0,.38-.17l.87-.4.52-.23v3.87l-.92.41-1.85.84-2,.89-2.24,1-1.22.56v-.6c0-.44,0-.6-.06-.6a3.05,3.05,0,0,0-.46.18l-.42.19v1.27l-.35.16-1.33.59-1,.47s-.05-.12-.05-.6a3.67,3.67,0,0,0,0-.6l-.45.2-.41.18v.61c0,.44,0,.62,0,.65l-.72.34-.86.39-.19.09Zm3.2,2.44.38-.17v-.63a4.29,4.29,0,0,0,0-.63,8.34,8.34,0,0,0-.82.37s-.05.21-.05.64,0,.6.05.6a3.24,3.24,0,0,0,.44-.18Zm2.88-3.9.27-.12v-.63a2.73,2.73,0,0,0,0-.62l-.45.19-.41.18v1.28l.17-.08.45-.2Zm3.54-.33.41-.18V23.76l-.43.2-.44.2v.63a2.73,2.73,0,0,0,0,.62l.44-.2Zm-4.54-.5.38-.18V23.9c0-.35,0-.63,0-.63l-.46.2-.44.2v.63c0,.74-.08.69.54.41Zm-1.41-.66.86-.39V22.39l-.58.26-.86.39-.33.16a3.68,3.68,0,0,0,0,1.24s.43-.17.91-.39ZM27,24l.4-.18V22.51l-.4.18-.44.2a4.46,4.46,0,0,0,0,1.26L27,24Zm-6.41-1,.42-.2v-.61a2.89,2.89,0,0,0,0-.61l-.47.2-.43.2v.61a2.32,2.32,0,0,0,0,.61l.47-.2Zm3.2-1.44.86-.4V19.88l-.51.23-.91.42-.4.19v.61c0,.46,0,.61.05.61s.44-.18.91-.39Zm-6.1-1.11c.63-.27.57-.19.57-.89a2.81,2.81,0,0,0,0-.61l-.91.4-.88.39V21l.43-.2.82-.36Zm10.37-.85.28-.12v-.63c0-.57,0-.63-.07-.61l-.44.19-.38.17v1.28l.17-.08.44-.2ZM26.58,19l.86-.4V17.33l-.36.16-.9.41-.54.25,0,.62c0,.48,0,.62,0,.62s.44-.18.92-.39Zm-7.81-.33.41-.19V17.2l-.23.11-.45.2-.21.1v.62a3,3,0,0,0,0,.63,3.52,3.52,0,0,0,.45-.19Zm2.8-1.29.89-.4.38-.17v-.64a2.51,2.51,0,0,0,0-.62l-.91.41-.88.4V17a5.09,5.09,0,0,0,0,.62l.51-.23Zm-3.67-.9.35-.17V15.06l-.09,0-.45.2-.35.17v1.25l.09,0,.45-.2ZM24.73,16l.86-.4,0-.63v-.63l-.91.4-.89.4v.63a3,3,0,0,0,0,.63l.9-.4Zm-5.9-1.21.35-.17V14a5.2,5.2,0,0,0,0-.63l-.44.2-.43.2V15l.09,0,.45-.2Zm1.78-2.11.39-.18V11.18l-.83.38v.64a2.51,2.51,0,0,0,0,.62l.43-.19ZM27,8.38l.4-.18V7.6a4.76,4.76,0,0,0,0-.6L27,7.18l-.39.18V8a2.45,2.45,0,0,0,0,.6l.42-.2ZM10.49,29.06l-.41-.18V26.27l.43.2.44.2V28c0,.72,0,1.3,0,1.3l-.45-.2ZM6.89,27.4l-.46-.23a3.52,3.52,0,0,1,0-.65v-.61l.46.21.45.2V27c0,.35,0,.64,0,.64l-.42-.2Zm1.74-.49-.42-.19v-.63a1.7,1.7,0,0,1,0-.63,3.36,3.36,0,0,1,.46.19l.43.19v.64c0,.48,0,.64-.06.63a4.28,4.28,0,0,1-.46-.2Zm5.53-.08-.42-.2V26a2.46,2.46,0,0,1,0-.62,3.72,3.72,0,0,1,.45.18l.41.19v.64c0,.36,0,.64,0,.64l-.44-.2ZM5,26.55l-.42-.2V25.07l-.45-.22-.46-.22V24a2.27,2.27,0,0,1,0-.63l.46.21.43.2v1.28l.34.15.45.22.12.06v.63c0,.5,0,.64,0,.64a4.28,4.28,0,0,1-.46-.2Zm6.39-1L11,25.4v-.64a3.15,3.15,0,0,1,0-.64l.45.2.43.19v.64c0,.49,0,.63,0,.63a3.38,3.38,0,0,1-.47-.2Zm-9.1-.29-.46-.21v-.62c0-.47,0-.62.05-.62a2.82,2.82,0,0,1,.47.19l.41.19v.64c0,.35,0,.64,0,.63l-.46-.2Zm5.49-2.67-.43-.2V21.13l.18.07.44.2.27.13v.65c0,.35,0,.64,0,.64l-.43-.2Zm5.48-.07a2.46,2.46,0,0,1-.43-.23,5,5,0,0,1,0-1.23,2.82,2.82,0,0,1,.47.19l.42.19v.64a4.13,4.13,0,0,1,0,.63l-.44-.19ZM1.33,22.27l-.4-.19v-.64a5.44,5.44,0,0,1,0-.64l.44.2.43.2v.63c0,.48,0,.63-.05.63a3.36,3.36,0,0,1-.44-.19Zm4.54-1.82L5,20.06l-.39-.17v-.64a3,3,0,0,1,0-.63s.27.1,1.32.57c.2.09.39.17.41.19s0-.13,0-.62a2.7,2.7,0,0,1,0-.63,4.28,4.28,0,0,1,.46.2l.43.2v1.3l-.09,0-.45-.2-.37-.16s0,.28,0,.62v.62Zm2.8-1.31L8.26,19v-.63a3,3,0,0,1,0-.63,4.74,4.74,0,0,1,.44.19l.42.19v.64a2.62,2.62,0,0,1,0,.63l-.44-.2Zm-6.39-.31-.42-.19V17.33l.45.2.44.21v.64a3.15,3.15,0,0,1,0,.64l-.44-.19Zm8.21-1.45-.41-.19v-.64c0-.42,0-.64,0-.63l.45.21.42.19v.62a3.81,3.81,0,0,1,0,.62l-.45-.18Zm2.75,0-.41-.19V15.85l-.91-.41V14.8c0-.35,0-.63,0-.63l.89.4.9.41a5.34,5.34,0,0,0,0-.63,3,3,0,0,1,0-.63l.44.19.42.19v.64a5.44,5.44,0,0,1,0,.64l-.4-.18L13.76,15a8,8,0,0,0,0,1.27c0,.7,0,1.27,0,1.27l-.45-.2ZM7.41,16c-.42-.19-.84-.38-1-.42l-.57-.25-.38-.17V13.81l.88.4.91.4a3,3,0,0,0,0-.63l0-.63L6.47,13l-1.19-.56-.54-.25-.17-.07V8.25l.1,0,.44.19.35.16v2.59l.4.19a3.9,3.9,0,0,0,.48.2l.09,0V10.37l.85.39v1.3l0,1.3.38.18c.61.28.55.33.55-.4,0-.35,0-.63,0-.63l.45.2.43.2v1.28l.89.42v.63a4.25,4.25,0,0,1,0,.63l-.88-.39-.86-.38s0,.27,0,.6,0,.61-.06.61L7.41,16Zm3.1-1.16-.43-.2V14a5.09,5.09,0,0,1,0-.62l.43.18a3.39,3.39,0,0,0,.43.18,1.66,1.66,0,0,0,0-.63,5.09,5.09,0,0,1,0-.62l.44.2.43.2v.63c0,.73.06.68-.51.42L11,13.76a1.8,1.8,0,0,0,0,.62V15Zm-9.14-.28-.44-.2V13c0-1.17,0-1.29.07-1.27l.44.2.38.17v1.31c0,.71,0,1.3,0,1.3l-.44-.21Zm2.72-1.35L3.7,13V11.7l.23.1.45.21.21.09v.63c0,.48,0,.63-.05.62a2.85,2.85,0,0,1-.43-.18Zm-.5-1.53s-.4-.2-.86-.41l-.85-.38v-.63a4.37,4.37,0,0,1,0-.63l.5.22.87.39.39.18V11c0,.35,0,.64,0,.64l0,0ZM.46,10.2,0,10V8.75l.17.07L.66,9l.27.13v.62a3,3,0,0,1,0,.63l-.44-.2Zm.89-.88L.93,9.13V8.49a5.44,5.44,0,0,1,0-.64l.44.2.43.2v.63a3,3,0,0,1,0,.63l-.44-.19Z" transform="translate(0 -0.01)"/><path class="cls-14" d="M15.54,30.47c0-.69,0-1.25,0-1.25l-.44.2-.43.2V27l.35-.16c.59-.26.54-.16.54-.9v-.64l.44-.2.45-.19V22.34l-.17.08-.45.2-.27.12V20.8c0-1.07,0-1.94,0-1.94l-.36.16c-.57.26-.51.31-.51-.43V18l.37-.16c.56-.25.52-.17.52-.87a2.46,2.46,0,0,0,0-.61l-.42.18-.41.19a6.06,6.06,0,0,1,0-.67,2.31,2.31,0,0,1,0-.67l.44-.19.41-.19V13.64l.43-.2.44-.2a5.44,5.44,0,0,1,0,.64,2.73,2.73,0,0,0,0,.65s.85-.36.89-.39a6.11,6.11,0,0,0,0-.67l0-.65.37-.16.88-.4.51-.22v-.66c0-.65,0-.66-.08-.63s-.4.17-.78.35l-.83.38-.13,0V10.28l.88-.41.93-.4a2.7,2.7,0,0,1,0,.59c0,.53,0,.59.07.57l.44-.19.38-.17V9l.47-.22.46-.21v.6c0,.33,0,.61,0,.61l.41-.19A2.77,2.77,0,0,1,22,9.43a3.14,3.14,0,0,0,.45-.18l.43-.18a3.07,3.07,0,0,1,0,.64v.63l-.44.2-.45.2V12l.22-.09.88-.41c.37-.17.69-.31.72-.31s0,.18,0,.61a5,5,0,0,0,0,.61l.42-.18.39-.18,0-.65a2.73,2.73,0,0,1,0-.65l.47-.2.43-.21V7.77l-.32.15-.55.24c-.14.05-.41.16-.6.25l-.36.17V7.35l.34-.15c.95-.43,2.61-1.19,3.55-1.64a6.78,6.78,0,0,1,.63-.28l.1,0v.61a5,5,0,0,0,0,.61l.41-.18.4-.19s0,1.17,0,2.6V11.3l-.43.19-.42.2v2.62l-.45.2-.44.19V16l.39-.18.58-.26.49-.22.32-.14V16.5l-.41.17a2.42,2.42,0,0,0-.44.23,2.89,2.89,0,0,0-.05.66v.63l-.43.19-.42.19V18c0-.46,0-.63-.07-.63s-.44.18-.91.4l-.87.4,0,1.28a11.31,11.31,0,0,0,0,1.28,3.39,3.39,0,0,0,.43-.18l.43-.18a2.62,2.62,0,0,1,0,.63c0,.73-.06.68.5.42l.37-.16a5.44,5.44,0,0,1,0,.64v.64l-.45.19-.44.2V24.2l.17-.08.45-.2.29-.12a5.09,5.09,0,0,1,0,.62v.63l.09,0c.05,0,.44-.2.87-.4l.8-.37a5.44,5.44,0,0,1,0,.64v.64l-.91.41-.91.41,0-1.24-.9.41-.9.41v1.26l-.9.4-.9.41v-.6c0-.46,0-.6-.06-.6s-1,.41-2.15,1c-.2.1-.46.21-.57.25s-.36.14-.55.23l-.36.17v1.26l-.42.2-.47.2a2.32,2.32,0,0,1,0-.61,4.76,4.76,0,0,0,0-.6l-.44.2-.43.2v-.65c0-.75.07-.71-.55-.42l-.38.18v1.31l-.46.21-.45.2v1.26l-.42.19-.44.19a12.1,12.1,0,0,1,0-1.26ZM16,29l.41-.18V27.52l-.44.2-.43.2v.63a2.36,2.36,0,0,0,0,.62L16,29Zm1.17-1.83.17-.07v-.63a3,3,0,0,0,0-.63l-.45.19-.41.19v1.28l.27-.13.45-.2ZM21,26.73l.69-.33.29-.13V25l-.09,0-.44.2-.36.16v-.64a5.55,5.55,0,0,0,0-.65l-.42.18-.45.19a2.31,2.31,0,0,1,0-.62v-.62l.46-.21.45-.2v.62c0,.34,0,.62,0,.62s.74-.32,1-.47l.75-.34L24,22.75l.65-.3v-.31c0-.17,0-.75,0-1.29,0-.83,0-1,0-1s-.45.18-.93.4l-.87.4,0,.68,0,.68-.44.19-.45.2s0-.29,0-.64v-.64l-.4.18-.9.4-.5.23v1.29l-.42.19-.43.19V23a2.29,2.29,0,0,0-.05-.62c-.05,0-1.74.76-1.79.81a11.69,11.69,0,0,0,0,1.3v1.28l.42-.2.46-.19a3.37,3.37,0,0,1,0,.62v.62l.55-.24.89-.4.34-.15v1.28l.22-.1.62-.28Zm3.56-1.6.17-.08V24.4c0-.58,0-.65-.06-.63l-.45.2-.38.17v1.31l.28-.12.44-.2ZM18,21.59l.24-.12v-1.3l.44-.19.46-.19a3,3,0,0,1,0,.63V21l.45-.21.44-.2V19.36c0-.7,0-1.27,0-1.27l-.43.18-.42.19a5.34,5.34,0,0,1,0-.63,1.84,1.84,0,0,0,0-.63l-.44.18-.42.19a12.5,12.5,0,0,1,0-1.28V15l-.09,0c-.15.06-1.67.78-1.7.81a11.67,11.67,0,0,0,0,1.29v1.26l.87-.4a8.16,8.16,0,0,1,.9-.38,4.43,4.43,0,0,1,0,1.26l-.88.42c-.46.2-.85.39-.88.41a4.66,4.66,0,0,0,0,1.29l.44-.19.43-.18a5.2,5.2,0,0,1,0,.63v.62l.21-.09.46-.21Zm6-2.71.69-.32v-.65c0-.74-.06-.63.57-.91l.35-.16V15.56c0-.7,0-1.27,0-1.27s-.43.17-.91.39l-.89.39v2.62l-.46.22-.47.22v1.26l.22-.1.91-.41Zm-1.4-.66.27-.13V16.82a12.5,12.5,0,0,0,0-1.28s-1.72.77-1.76.81a4.09,4.09,0,0,0,0,.66v.63l.44-.2.46-.2s0,.28,0,.63v.62l.17-.07.45-.2ZM19.8,16.9l.31-.14V15.48c0-.7,0-1.27,0-1.27l-.45.2-.43.2v2.55l.13-.05.45-.21ZM16,16l.43-.2v-.61a5,5,0,0,0,0-.61s-.77.34-.82.38-.05.2-.05.64,0,.6,0,.6L16,16Zm11-1.12.42-.19V13.44l-.14.05-.44.21-.31.14v.63a5.34,5.34,0,0,0,0,.63l.45-.19Zm-8.19-.17.35-.17V14a5.2,5.2,0,0,0,0-.63l-.44.2-.43.2V15l.09,0,.45-.2Zm6.4-1.63.38-.17V11.7l-.17.08L25,12l-.28.12v.61c0,.55,0,.61.07.59l.44-.19Zm-4.62-.48.39-.18V11.18l-.41.19-.42.19v.64a2.51,2.51,0,0,0,0,.62l.43-.19Zm6.45-.33.38-.17V10.85l-.45.21-.44.21v.62c0,.56,0,.62.06.6l.45-.19Zm0-3.92.4-.18V7.6a4.76,4.76,0,0,0,0-.6L27,7.18l-.39.18V8a2.45,2.45,0,0,0,0,.6l.42-.2Zm.4,12.16,0-.64.45-.2.46-.21V18.17l.17-.08L29,17.9l.28-.13v2.61l-.85.37-.91.4c-.06,0-.07,0-.06-.61Z" transform="translate(0 -0.01)"/><path class="cls-15" d="M15.54,30.47c0-.69,0-1.25,0-1.25l-.44.2-.43.2V27l.35-.16c.59-.26.54-.16.54-.9v-.64l.44-.2.45-.19V22.34l-.17.08-.45.2-.27.12V20.8c0-1.07,0-1.94,0-1.94l-.36.16c-.57.26-.51.31-.51-.43V18l.37-.16c.56-.25.52-.17.52-.87a2.46,2.46,0,0,0,0-.61l-.42.18-.41.19a4.76,4.76,0,0,1,0-.66v-.65l.42-.2.43-.19,0-1.3.43-.2.44-.2a5.09,5.09,0,0,1,0,.62,1.88,1.88,0,0,0,0,.63s.42-.17.88-.39l.89-.41s.05.12,0,.63V15l-.57.26-.9.43-.33.15v1.28c0,1.2,0,1.27.07,1.25l.88-.4a7.16,7.16,0,0,1,.84-.36,4.43,4.43,0,0,1,0,1.26l-.88.42c-.46.2-.85.39-.88.41a4.66,4.66,0,0,0,0,1.29l.44-.19.43-.18s0,.28,0,.62v.63l.4-.19c.23-.1.43-.2.46-.22s.05-.22.05-.67v-.64l.44-.19.46-.19a3,3,0,0,1,0,.63V21l.45-.21.44-.2V19.36c0-.7,0-1.27,0-1.27l-.43.18-.42.19a5.34,5.34,0,0,1,0-.63,1.84,1.84,0,0,0,0-.63l-.44.18-.42.19a12.5,12.5,0,0,1,0-1.28V15l.45-.21.44-.2V10.72l.43-.2.46-.2a7.88,7.88,0,0,1,0,1.28c0,1,0,1.28.05,1.26l.47-.21.41-.2V11.17l.43-.2a2.21,2.21,0,0,1,.45-.19s0,.58,0,1.27,0,1.27,0,1.27l.45-.2.43-.2V11.63l.42-.19c.23-.11.44-.2.46-.22s.05.13.05.62a4.25,4.25,0,0,0,0,.63l.45-.19.41-.19V10.8l.47-.21.46-.22,0-1.31.44-.2.45-.2a5.34,5.34,0,0,1,0,.63,3,3,0,0,0,0,.63l.9-.4.87-.4V7.81l.17-.08L29,7.54l.28-.13V11.3l-.43.19-.42.2v2.62l-.45.2-.44.19V16l.39-.18.58-.26.49-.22.32-.14v1.31l-.41.18a2.42,2.42,0,0,0-.44.23,2.89,2.89,0,0,0-.05.66v.63l-.43.19-.42.19V18c0-.46,0-.63-.07-.63s-.44.18-.91.4l-.87.4,0,1.28a11.31,11.31,0,0,0,0,1.28,3.39,3.39,0,0,0,.43-.18l.43-.18a2.62,2.62,0,0,1,0,.63c0,.73-.06.68.5.42l.37-.16a5.44,5.44,0,0,1,0,.64v.64l-.45.19-.44.2V24.2l.17-.08.45-.2.29-.12a5.09,5.09,0,0,1,0,.62v.63l.09,0c.05,0,.44-.2.87-.4l.8-.37a5.44,5.44,0,0,1,0,.64v.64l-.91.41-.91.41,0-1.24-.9.41-.9.41v1.26l-1.8.81v-.6c0-.46,0-.6-.06-.6s-1,.41-2.15,1c-.2.1-.46.21-.57.25s-.36.14-.55.23l-.36.17v1.26l-.42.2-.47.2a2.32,2.32,0,0,1,0-.61,4.76,4.76,0,0,0,0-.6l-.44.2-.43.2v-.65c0-.76.07-.71-.55-.42l-.38.18v1.31l-.46.21-.45.2v1.26l-.42.19-.44.19a12.1,12.1,0,0,1,0-1.26ZM16,29l.41-.18V27.52l-.44.2-.43.2v.63a2.36,2.36,0,0,0,0,.62L16,29Zm1.17-1.83.17-.07v-.63a3,3,0,0,0,0-.63l-.45.19-.41.19v1.28l.27-.13.45-.2ZM21,26.73l.69-.33.29-.13V25l-.09,0-.44.2-.36.16v-.64a5.55,5.55,0,0,0,0-.65l-.42.18-.45.19a2.31,2.31,0,0,1,0-.62v-.62l.46-.21.45-.2v.62c0,.34,0,.62,0,.62s.74-.32,1-.47l.75-.34L24,22.75l.65-.3v-.31c0-.17,0-.75,0-1.29,0-.83,0-1,0-1s-.45.18-.93.4l-.87.4,0,.68,0,.68-.44.19-.45.2s0-.29,0-.64v-.64l-.4.18-.9.4-.5.23v1.29l-.42.19-.43.19V23a2.29,2.29,0,0,0-.05-.62c-.05,0-1.74.76-1.79.81a11.69,11.69,0,0,0,0,1.3v1.28l.42-.2.46-.19a3.37,3.37,0,0,1,0,.62v.62l.55-.24.89-.4.34-.15v1.28l.22-.1.62-.28Zm3.56-1.6.17-.08V24.4c0-.58,0-.65-.06-.63l-.45.2-.38.17v1.31l.28-.12.44-.2ZM24,18.88l.69-.32v-.65c0-.74-.05-.63.57-.91l.35-.16V15.56c0-.7,0-1.27,0-1.27s-.43.17-.91.39l-.89.39v2.62l-.93.44v1.26l.22-.1.91-.41Zm-1.4-.66.27-.13V16.82a12.5,12.5,0,0,0,0-1.28s-1.72.77-1.76.81a4.09,4.09,0,0,0,0,.66v.63l.44-.2.46-.2s0,.28,0,.63v.62l.17-.07.45-.2ZM19.8,16.9l.31-.14V15.48c0-.7,0-1.27,0-1.27l-.45.2-.43.2v2.55l.13-.05.45-.21ZM16,16l.43-.2v-.61a5,5,0,0,0,0-.61s-.77.34-.82.38-.05.2-.05.64,0,.6,0,.6L16,16Zm11-1.12.42-.19V13.44l-.14.05-.44.21-.31.14v.63a5.34,5.34,0,0,0,0,.63l.45-.19Zm-1.79-1.8.38-.17V11.7l-.17.08L25,12l-.28.12v.61c0,.55,0,.61.07.59l.44-.19Zm1.83-.81.38-.17V10.85l-.45.21-.44.21v.62c0,.56,0,.62.06.6l.45-.19Zm.38,8.24,0-.64.45-.2.46-.21V18.17l.17-.08L29,17.9l.28-.13v2.61l-.85.37-.91.4c-.06,0-.07,0-.06-.61Z" transform="translate(0 -0.01)"/><path class="cls-16" d="M16.44,29.44v-.65l.36-.17a3.89,3.89,0,0,1,.45-.19l.1,0v1.25l-.44.2-.46.21a2.51,2.51,0,0,1,0-.62Zm2.74-1.25a5.2,5.2,0,0,0,0-.63l-.44.2-.43.2V26.67l.38-.18c.62-.28.55-.33.55.4v.63l.27-.13.45-.2.17-.07v1.3l-.43.2a3.36,3.36,0,0,1-.46.19,2.31,2.31,0,0,1,0-.62ZM21,27.34v-.63l.39-.18c.61-.28.55-.33.53.4v.64l-.44.2-.45.2a5.34,5.34,0,0,1,0-.63Zm-5.5-.09V26.6l.38-.16.44-.2c.06,0,.07,0,.07.62v.64l-.41.18-.44.2a2,2,0,0,1,0-.63Zm9.15-1.48c0-.29,0-.88,0-1.3l0-.76.43-.19.42-.2,0,1.28a12.73,12.73,0,0,1,0,1.31,6.06,6.06,0,0,1-.86.4,2.15,2.15,0,0,1,0-.54Zm3.68-.48v-.63l.38-.17.44-.19c.06,0,.07,0,.07.6v.62l-.38.17-.44.19c-.07,0-.07,0-.07-.59Zm-5.51-.07v-.66l.18-.07.44-.2.27-.13v1.32l-.41.18-.44.19a2.49,2.49,0,0,1,0-.63Zm-6.38-2.28v-.65l.42-.19.43-.19v.63a2.25,2.25,0,0,1,0,.66,7,7,0,0,1-.83.4,4.84,4.84,0,0,1,0-.66ZM22,21.73v-.65l.39-.18.43-.18s.05.15.05.63V22l-.35.16-.45.2-.09,0Zm-2.8,0v-.63l.23-.1.72-.34.7-.32.21-.09V18.92l.44-.19c.24-.11.45-.19.46-.19a2.68,2.68,0,0,1,0,.63c0,.73.06.62-.56.91l-.36.16v1.25l-.64.31a10.42,10.42,0,0,1-1.18.54,2.62,2.62,0,0,1,0-.63Zm6.43-.33v-.64l.43-.19a3.81,3.81,0,0,1,.47-.19,2.65,2.65,0,0,1,0,.63v.63l-.44.2-.46.2a5.44,5.44,0,0,1,0-.64Zm2.76-1.27v-.65l.17-.07.44-.2.28-.12,0,1.29-.44.2-.43.2v-.65ZM15.54,18.85v-1.3l.43-.2c.24-.1.44-.19.44-.18s0,.58,0,1.29v1.27l-.14.07-.46.21-.31.14Zm7.33-1.41v-.65l.43-.2a1.65,1.65,0,0,1,.45-.16,2.89,2.89,0,0,1,0,.63v.61l-.24.11-.46.22-.21.09Zm4.57-.79,0-.63.42-.2a3.36,3.36,0,0,1,.46-.19,4,4,0,0,1,0,.63v.64l-.43.19a2.82,2.82,0,0,1-.47.19,2.65,2.65,0,0,1,0-.63Zm-7.32-.55v-.65l1.8-.81V13.36l-.17.08-.68.3-.95.43-.68.3-.23.1V10.7l.38-.17.45-.19c.06,0,.06.09.06,1.25,0,.71,0,1.28,0,1.28l.46-.2.42-.19,0-.66,0-.66.43-.2.42-.19V12a10.9,10.9,0,0,0,0,1.28l.47-.2.42-.2V11.64l.44-.2.46-.19a2.57,2.57,0,0,1,0,.62v.62l.43-.19.42-.19,0,.62a2.62,2.62,0,0,0,0,.63,3.39,3.39,0,0,0,.43-.18l.43-.19a3,3,0,0,1,0,.62v.63l-.41.19-.46.21s-.06-.13-.06-.61l0-.63-.9.41-.9.41v1.27l-.55.26-1.15.53c-.58.28-1,.48-1,.48a4.76,4.76,0,0,1,0-.66ZM14.65,16v-.62l.41-.19.45-.18a3,3,0,0,1,0,.62v.62l-.42.19-.45.18a5,5,0,0,1,0-.62Zm3.64-.35V15l.17-.07.45-.2.27-.13v1.3L19,16l-.45.2-.27.13Zm-1.81-.47v-.63l.8-.38c.44-.21.85-.39.9-.4l.1,0V15l-.83.39-.9.42c-.07,0-.07,0-.06-.61Zm-.94-.88v-.63l.17-.08.45-.2.27-.12v1.28l-.42.19-.44.19a3.08,3.08,0,0,1,0-.63Zm11.94-2.83c0-.45,0-.63-.05-.63A2.77,2.77,0,0,0,27,11l-.42.18a4.05,4.05,0,0,1,0-.62V10l-.44.2-.43.2V9.06l.42-.2.45-.2a5.34,5.34,0,0,1,0,.63,3,3,0,0,0,0,.63l.9-.4.87-.39V7.83l.41-.19a3.52,3.52,0,0,1,.45-.19,4.33,4.33,0,0,1,0,.64v.63l-.44.2-.44.2v2.6L28,11.9l-.45.2a2.87,2.87,0,0,1,0-.62Zm-2.75-.06v-.63l.41-.18.44-.2a2.8,2.8,0,0,1,0,.62v.63l-.35.17a4,4,0,0,1-.44.19l-.1,0Z" transform="translate(0 -0.01)"/></g></g></svg>